<?xml version="1.0" encoding="UTF-8" standalone="no"?>
<!-- Created with Inkscape (http://www.inkscape.org/) -->

<svg
   width="135.77168mm"
   height="173.6713mm"
   viewBox="0 0 135.77168 173.6713"
   version="1.1"
   id="svg1"
   xml:space="preserve"
   inkscape:version="1.4 (86a8ad7, 2024-10-11)"
   sodipodi:docname="saam_lombardia_logo.svg"
   xmlns:inkscape="http://www.inkscape.org/namespaces/inkscape"
   xmlns:sodipodi="http://sodipodi.sourceforge.net/DTD/sodipodi-0.dtd"
   xmlns="http://www.w3.org/2000/svg"
   xmlns:svg="http://www.w3.org/2000/svg"><sodipodi:namedview
     id="namedview1"
     pagecolor="#ffffff"
     bordercolor="#000000"
     borderopacity="0.25"
     inkscape:showpageshadow="2"
     inkscape:pageopacity="0.0"
     inkscape:pagecheckerboard="0"
     inkscape:deskcolor="#d1d1d1"
     inkscape:document-units="mm"
     inkscape:zoom="0.75811588"
     inkscape:cx="261.83332"
     inkscape:cy="523.00712"
     inkscape:window-width="1920"
     inkscape:window-height="1111"
     inkscape:window-x="-9"
     inkscape:window-y="1341"
     inkscape:window-maximized="1"
     inkscape:current-layer="layer1" /><defs
     id="defs1" /><g
     inkscape:label="Layer 1"
     inkscape:groupmode="layer"
     id="layer1"
     transform="translate(-35.64763,-10.169995)"><path
       style="fill:#000000"
       d="m 91.118638,183.41734 c -1.509547,-0.61371 -2.331634,-1.55261 -2.120508,-2.42182 0.432448,-1.78039 3.741548,-2.6162 6.618418,-1.67167 2.495514,0.81931 3.750284,0.93099 5.081572,0.45226 0.86993,-0.31282 1.44277,-0.71977 1.73849,-1.23503 0.43745,-0.76221 0.43434,-0.77256 -0.37957,-1.26754 -0.80526,-0.4897 -0.83083,-0.48954 -1.36534,0.008 -0.67667,0.63042 -0.971508,0.64375 -0.982908,0.0445 -0.0104,-0.54496 -0.87549,-1.65364 -1.29038,-1.65364 -0.15857,0 -0.28832,-0.10634 -0.28832,-0.23631 0,-0.12998 -0.698834,-0.35941 -1.552964,-0.50987 -2.16311,-0.38102 -4.26787,0.37264 -4.26787,1.52823 0,0.24897 -0.0752,0.52786 -0.16708,0.61975 -0.24773,0.24773 -1.19616,-0.32875 -1.01721,-0.6183 0.0844,-0.13655 -0.0217,-0.18106 -0.2358,-0.0989 -0.21408,0.0821 -0.721609,-0.068 -1.127835,-0.33376 -0.61154,-0.40001 -1.263792,-0.48043 -3.791688,-0.46745 -2.910988,0.0149 -3.105432,0.051 -4.177573,0.77461 -0.618464,0.41741 -1.124479,0.85684 -1.124479,0.97651 0,0.5936 -0.573143,0.0742 -1.292783,-1.17148 -1.028296,-1.78 -2.197812,-2.57969 -3.772721,-2.57969 -0.657966,0 -1.280179,0.0839 -1.382695,0.1864 -0.102516,0.10251 -0.479548,0.22565 -0.837847,0.27363 -0.588684,0.0788 -0.651454,-0.005 -0.651454,-0.87401 0,-1.08138 -0.693454,-2.73914 -1.232302,-2.94591 -0.195359,-0.075 -0.355198,-0.27956 -0.355198,-0.45465 0,-0.57006 -1.628591,-2.00629 -2.274999,-2.00629 -0.791502,0 -2.752084,-0.77442 -2.752084,-1.08706 0,-0.12972 0.281522,-0.23586 0.625605,-0.23586 1.176379,0 2.146276,-1.26283 2.673345,-3.48075 0.507341,-2.13492 0.428456,-3.41297 -0.252698,-4.09413 -0.880424,-0.88042 -0.559701,-0.92681 2.504057,-0.36218 0.651576,0.12007 1.365951,0.12922 1.5875,0.0203 0.221548,-0.1089 1.117191,-0.36066 1.990316,-0.55947 0.873125,-0.19881 1.717803,-0.53367 1.877062,-0.74414 0.323152,-0.42707 1.535806,-0.24417 2.223979,0.33542 0.395931,0.33346 4.045364,1.21202 5.034603,1.21202 0.398286,0 0.521647,-0.18005 0.521647,-0.76136 0,-0.99294 0.730609,-1.66694 1.097086,-1.01208 0.138669,0.24778 0.424803,0.45052 0.635853,0.45052 0.21105,0 0.383728,0.15158 0.383728,0.33685 0,0.41216 2.888965,1.36011 5.499965,1.8047 1.84076,0.31343 1.96059,0.30216 2.64583,-0.24892 1.33275,-1.07181 1.92478,-1.26707 2.29725,-0.75768 0.182014,0.2489 0.466624,0.45255 0.632484,0.45255 0.16586,0 0.30156,0.091 0.30156,0.20217 0,0.21656 1.935168,1.12075 2.398678,1.12075 0.15311,0 0.21628,0.10048 0.14037,0.2233 -0.0759,0.12283 1.31605,0.24493 3.09324,0.27136 l 3.23125,0.048 0.42075,-0.86667 c 0.47847,-0.98553 1.18035,-1.26057 1.40562,-0.55079 0.25914,0.81646 1.70388,1.27251 3.99446,1.2609 1.84163,-0.009 2.26278,-0.1043 3.24115,-0.73092 0.61846,-0.39611 1.12448,-0.79933 1.12448,-0.89605 0,-0.0967 -0.38696,-0.50005 -0.8599,-0.8963 l -0.85989,-0.72045 0.77284,-0.62173 c 0.42506,-0.34196 0.86066,-0.68157 0.96801,-0.7547 0.42552,-0.2899 -0.0949,-1.53525 -0.77351,-1.85086 -0.38652,-0.17978 -0.89793,-0.42481 -1.13646,-0.54452 -0.23854,-0.1197 -1.75943,-0.30153 -3.37977,-0.40406 l -2.94608,-0.18642 -0.4304,1.0957 c -0.36745,0.93544 -0.4923,1.0493 -0.85356,0.77843 -0.35463,-0.26591 -0.3696,-0.25722 -0.0924,0.0536 0.88975,0.99778 -0.0124,1.29737 -1.05264,0.34958 -1.17253,-1.06828 -1.59997,-1.13935 -6.53197,-1.08607 l -4.784662,0.0517 v 0.70002 c 0,1.61295 -0.92852,2.9541 -1.45521,2.10191 -0.0899,-0.14553 -0.39462,-0.26459 -0.67707,-0.26459 -0.28245,0 -0.51355,-0.11906 -0.51355,-0.26458 0,-0.14552 -0.0893,-0.25048 -0.19844,-0.23325 -0.10914,0.0172 -0.25797,0.006 -0.33073,-0.0257 -0.0728,-0.0313 -1.02526,-0.11026 -2.116665,-0.17539 -1.091407,-0.0651 -2.936875,-0.24293 -4.101042,-0.39513 -4.588412,-0.59987 -4.372416,-0.60154 -4.819903,0.0373 -0.440693,0.62918 -0.62467,0.6283 -3.646763,-0.0174 -0.727605,-0.15547 -2.39448,-0.45938 -3.704167,-0.67535 -3.983757,-0.65693 -4.101153,-0.68249 -4.2514,-0.92559 -0.315059,-0.50978 -0.932485,-0.18601 -1.569433,0.82298 -0.674453,1.0684 -1.48822,1.3792 -1.905082,0.7276 -0.42476,-0.66394 -4.319853,-2.84427 -5.081213,-2.84427 -0.12372,0 -0.37317,-0.17859 -0.55433,-0.39687 -0.18116,-0.21828 -0.49842,-0.39688 -0.70502,-0.39688 -0.46607,0 -0.84759,-0.29871 -2.61779,-2.04959 -0.77189,-0.76348 -1.47915,-1.62668 -1.57169,-1.91823 -0.16445,-0.51814 -0.94846,-0.6901 -2.71227,-0.5949 -0.32742,0.0177 -0.59531,-0.0796 -0.59531,-0.21611 0,-0.13654 -0.29766,-0.24825 -0.66146,-0.24825 -0.73417,0 -0.77213,-0.0672 -0.41286,-0.7312 0.32452,-0.59972 0.64733,-1.95233 0.57214,-2.39728 -0.0326,-0.1927 0.0773,-0.51491 0.24427,-0.71602 0.1669,-0.20111 0.22666,-0.48993 0.13278,-0.64183 -0.0939,-0.15189 -0.0376,-0.27617 0.12513,-0.27617 0.16269,0 0.22574,-0.11338 0.14009,-0.25196 -0.2665,-0.43121 0.33973,-3.44663 0.95225,-4.73653 0.32104,-0.67607 1.05056,-1.74399 1.62116,-2.37316 0.94236,-1.0391 1.00045,-1.1846 0.63378,-1.5875 -0.22201,-0.24396 -0.85761,-0.67695 -1.41245,-0.96221 -0.55484,-0.28525 -1.05273,-0.54747 -1.10644,-0.58271 -0.18764,-0.12312 0.63436,-0.75561 1.55286,-1.19485 1.54604,-0.73934 4.48113,-1.1082 7.19294,-0.90396 1.35539,0.10209 2.577458,0.29834 2.715702,0.43612 0.138245,0.13778 0.614495,0.2543 1.058334,0.25892 0.443838,0.005 1.038095,0.18323 1.320569,0.39688 1.00415,0.7595 1.262453,0.51097 1.164504,-1.12046 -0.08514,-1.41802 -0.05075,-1.52003 0.570864,-1.69342 1.006381,-0.28071 4.706467,-0.27105 4.806597,0.0125 0.04851,0.13738 0.797344,0.27781 1.664082,0.31207 0.866737,0.0343 1.883428,0.21569 2.259312,0.40321 0.375884,0.18751 1.095485,0.36742 1.599113,0.39979 0.503628,0.0324 1.187083,0.26442 1.518789,0.51568 0.331705,0.25125 1.075846,0.53669 1.653645,0.63431 0.5778,0.0976 1.050545,0.28609 1.050545,0.41882 0,0.13273 0.20836,0.24511 0.463021,0.24974 0.254661,0.005 0.694137,0.18322 0.976611,0.39688 0.282475,0.21365 0.72896,0.38846 0.992188,0.38846 0.263228,0 0.478597,0.11906 0.478597,0.26458 0,0.52106 0.671069,0.2418 1.190625,-0.49547 0.994805,-1.41166 2.232476,-2.67953 2.615701,-2.67953 0.2106,0 0.428739,-0.13749 0.484752,-0.30553 0.05601,-0.16803 0.538897,0.15939 1.073087,0.72761 1.8753,1.9948 2.4142,2.45744 3.04772,2.61644 0.35148,0.0882 0.9436,0.35993 1.3158,0.60381 0.37221,0.24388 0.98266,0.48438 1.35655,0.53446 0.373904,0.0501 0.741574,0.18494 0.817064,0.29971 0.22589,0.34345 5.561198,0.62149 5.561198,0.28981 0,-0.15675 0.20836,-0.36366 0.46303,-0.4598 0.25466,-0.0961 0.78886,-0.49839 1.18712,-0.89388 0.69937,-0.69453 1.78944,-0.80603 1.78944,-0.18304 0,0.33858 1.09881,1.24828 1.52135,1.25952 0.1819,0.005 0.33073,0.12787 0.33073,0.27339 0,0.14552 0.13696,0.26458 0.30436,0.26458 0.1674,0 0.91154,0.29531 1.65364,0.65625 0.74211,0.36093 1.62697,0.69717 1.96636,0.74719 0.33939,0.05 0.72452,0.26073 0.85585,0.46824 0.13132,0.2075 0.24059,0.25707 0.24282,0.11014 0.002,-0.14693 0.33148,-0.2717 0.73166,-0.27728 2.63624,-0.0367 3.78257,-0.14773 3.65515,-0.3539 -0.0805,-0.13027 0.0339,-0.30602 0.25417,-0.39056 0.22031,-0.0845 0.64811,-0.57327 0.95066,-1.08606 0.56919,-0.9647 1.20216,-1.20866 1.45132,-0.55935 0.0787,0.20514 0.43704,0.44676 0.79627,0.53692 0.35922,0.0902 0.58171,0.2795 0.49441,0.42075 -0.091,0.14723 0.23369,0.25683 0.76088,0.25683 0.50578,0 0.95929,0.11291 1.0078,0.25092 0.22372,0.63649 4.72105,0.30367 6.29222,-0.46565 1.20162,-0.58836 2.14754,-1.39548 1.97075,-1.68154 -0.0778,-0.12596 -0.2576,-0.15731 -0.39944,-0.0696 -0.14184,0.0877 -0.41867,0.0259 -0.61516,-0.13713 -0.1965,-0.16308 -0.96519,-0.36851 -1.70821,-0.4565 -0.74301,-0.088 -1.35093,-0.20456 -1.35093,-0.25903 0,-0.2672 0.72477,-1.3364 1.2261,-1.80878 0.85238,-0.80316 0.9268,-2.14547 0.20918,-3.77317 -0.37431,-0.84901 -0.77844,-1.38906 -1.03946,-1.38906 -0.23487,0 -0.35945,-0.10938 -0.27683,-0.24306 0.0826,-0.13368 -0.20801,-0.32173 -0.64584,-0.4179 -0.43784,-0.0962 -0.79606,-0.27327 -0.79606,-0.39357 0,-0.22633 -2.47402,-0.67392 -3.175,-0.57442 -1.18099,0.16765 -1.52457,0.39417 -2.24896,1.4828 -0.43656,0.65606 -0.88305,1.19546 -0.99219,1.19866 -0.10914,0.003 -0.19844,0.25267 -0.19844,0.55439 0,0.80208 -0.90451,0.54485 -1.00811,-0.28669 -0.16711,-1.34125 -0.89625,-2.8245 -1.58986,-3.23415 -0.46199,-0.27285 -1.95476,-0.52006 -4.28119,-0.70898 -3.65157,-0.29653 -5.34493,-0.49416 -6.1337,-0.71586 -0.38906,-0.10936 -0.42707,0.0515 -0.3016,1.27609 0.079,0.77068 -0.001,1.93701 -0.17855,2.59185 l -0.3221,1.19063 -0.69922,-0.8117 c -0.38456,-0.44643 -1.12325,-1.06735 -1.64153,-1.37982 -1.95877,-1.18095 -8.310612,-2.1888 -19.36445,-3.07257 -0.836744,-0.0669 -1.518513,-0.0409 -1.515042,0.0577 0.0035,0.0986 0.111318,0.63167 0.239659,1.18454 0.441059,1.90001 -0.296031,3.38817 -2.468481,4.98377 -1.307817,0.96055 -1.481656,0.95039 -1.481656,-0.0866 0,-0.51205 -0.416899,-1.54625 -1.059014,-2.62709 -1.432118,-2.41061 -2.761453,-3.17301 -9.364437,-5.37074 -2.895242,-0.96364 -5.284719,-1.71982 -5.309949,-1.68039 -0.02523,0.0394 -0.253239,0.84559 -0.506685,1.79148 -0.353035,1.31756 -0.717465,1.98279 -1.558165,2.84427 -0.60354,0.61846 -1.19162,1.12448 -1.30684,1.12448 -0.11522,0 -0.20949,-0.39511 -0.20949,-0.87802 0,-1.6241 -0.77351,-3.60959 -1.79129,-4.59798 -1.22963,-1.19414 -2.26627,-1.84312 -5.82625,-3.64751 -3.00068,-1.5209 -3.49415,-1.68027 -3.49619,-1.12909 -0.002,0.66827 -1.55421,1.97277 -2.74238,2.30543 -1.75302,0.49082 -2.00765,0.31519 -1.72631,-1.19074 0.12745,-0.68221 0.16136,-1.5544 0.0754,-1.93821 -0.40644,-1.81382 -1.84043,-5.66109 -2.79498,-7.49868 -0.62165,-1.19674 -0.97714,-2.17993 -0.86098,-2.38126 0.10882,-0.1886 0.10125,-0.25546 -0.0168,-0.14858 -0.11808,0.10688 -0.35037,0.009 -0.51619,-0.21801 -0.24662,-0.33727 -0.42389,-0.35656 -0.97383,-0.10599 -0.82366,0.37528 -2.50051,-0.01 -3.386,-0.77798 l -0.59128,-0.51281 0.75555,-0.39071 c 1.02542,-0.530267 1.82457,-2.265167 2.1967,-4.768917 0.17021,-1.1452 0.47887,-2.56232 0.68592,-3.14915 0.20705,-0.58684 0.42416,-1.45161 0.48247,-1.92173 0.0912,-0.73495 0.0352,-0.83623 -0.39936,-0.72259 -0.2858,0.0747 -0.50537,-0.003 -0.50537,-0.1789 0,-0.17108 -0.10553,-0.24584 -0.2345,-0.16613 -0.21965,0.13575 -0.54755,-0.65929 -0.55564,-1.34721 -0.002,-0.16911 0.50241,-0.39006 1.12087,-0.491 1.26051,-0.20573 2.5863,-0.93079 3.49614,-1.91202 0.5659,-0.61029 0.61659,-0.93518 0.72728,-4.6613 0.13274,-4.468158 0.28332,-4.949188 2.31887,-7.407538 0.58546,-0.70707 1.06448,-1.43515 1.06448,-1.61797 0,-0.18281 0.24517,-0.64407 0.54483,-1.02502 0.60643,-0.77095 0.42879,-1.3631 -0.40892,-1.3631 -0.61251,0 -0.88721,-0.88981 -0.37284,-1.20771 0.18936,-0.11704 0.69584,-0.14248 1.1255,-0.0566 0.55352,0.1107 0.72611,0.0671 0.59216,-0.14965 -0.10605,-0.17159 -0.037,-0.30766 0.1573,-0.30993 0.26111,-0.003 0.26801,-0.0538 0.028,-0.20637 -0.17506,-0.11127 -0.39301,-0.67499 -0.48433,-1.25272 -0.14776,-0.93478 -0.0763,-1.13594 0.64902,-1.82751 0.89652,-0.85476 1.02459,-1.33483 0.41819,-1.56753 -0.57565,-0.22089 -0.49007,-1.56657 0.15149,-2.38218 0.39851,-0.50662 0.79193,-0.69714 1.4396,-0.69714 1.24541,0 1.33947,-0.35776 0.43493,-1.65426 -0.69838,-1.001 -0.77565,-1.30606 -0.70683,-2.79037 0.0796,-1.71656 0.50162,-2.52757 1.47627,-2.83691 0.41809,-0.1327 1.83474,-2.51791 1.83474,-3.08916 0,-0.11695 -0.2438,-0.21263 -0.54179,-0.21263 -0.49661,0 -0.53522,-0.1379 -0.46302,-1.653648 l 0.0788,-1.653646 1.10573,0.06884 c 0.95985,0.05975 1.11692,-0.0073 1.19062,-0.508443 0.12231,-0.831658 0.57953,-0.868042 1.30458,-0.103817 0.9794,1.032313 1.65061,0.828908 1.05617,-0.320063 -0.13073,-0.252687 -0.56475,-1.3524 -0.96448,-2.443806 -0.39974,-1.091406 -0.8184,-2.103437 -0.93036,-2.248958 -0.49101,-0.638179 -1.57135,-3.985726 -1.56849,-4.860147 0.005,-1.420032 0.66669,-3.657823 1.41809,-4.793262 0.58756,-0.887865 1.7875,-1.665887 3.42005,-2.217505 0.38267,-0.129298 0.44251,-0.337422 0.3061,-1.064567 -0.14354,-0.765085 -0.0845,-0.930832 0.38423,-1.079617 0.82878,-0.263044 0.76579,-1.463027 -0.0768,-1.463027 -0.40808,0 -0.67943,-0.186724 -0.76898,-0.529167 -0.0828,-0.316601 -0.36089,-0.529166 -0.69231,-0.529166 -0.6666,0 -0.71268,-0.444393 -0.11459,-1.105268 0.55279,-0.610827 0.2407,-0.968334 -0.46215,-0.529399 -0.6002,0.374835 -1.03553,0.209199 -1.03553,-0.394006 0,-0.30259 -0.16925,-0.367465 -0.6463,-0.247733 -1.03294,0.259252 -1.99954,-0.32357 -1.99954,-1.205647 0,-0.491416 -0.13728,-0.751281 -0.39687,-0.751281 -0.21828,0 -0.39688,0.217371 -0.39688,0.483047 0,0.572328 -0.94535,1.498386 -1.79173,1.755171 -0.75645,0.229499 -2.88581,-0.527777 -3.73271,-1.327485 l -0.62965,-0.59456 0.5635,-0.604852 c 0.30993,-0.332668 0.56351,-0.802661 0.56351,-1.04443 0,-0.896183 1.58189,-2.638641 3.04851,-3.357938 1.44338,-0.7079 1.44941,-0.715917 1.44941,-1.929152 0,-1.63119 0.90227,-2.521497 2.77812,-2.741283 1.63041,-0.191028 2.88863,0.364853 3.76088,1.661548 0.59732,0.887982 0.83638,2.672851 0.35799,2.672851 -0.55034,0 -0.57073,1.11531 -0.039,2.135409 0.3027,0.580737 0.55036,1.304231 0.55036,1.607764 0,0.455194 0.10429,0.516836 0.59531,0.351857 0.9605,-0.322722 6.10522,-0.479397 5.920365,-0.180296 -0.17013,0.275277 1.357284,1.112349 2.029715,1.112349 0.521733,0 2.037943,1.740853 2.037943,2.339887 0,0.258165 -0.164981,0.695015 -0.366624,0.970779 -0.276215,0.377747 -0.297559,0.652971 -0.08655,1.11608 0.374464,0.821859 -0.05906,1.298783 -0.813553,0.894992 -0.718978,-0.384786 -1.232286,0.240998 -1.029475,1.255053 0.08612,0.43062 0.0033,0.969963 -0.192813,1.256114 -1.406761,2.052265 -1.932873,3.754402 -0.978046,3.164287 0.225742,-0.139516 4.946419,-0.57588 9.354723,-0.864719 1.12816,-0.07392 2.259254,-0.04181 2.513541,0.07134 0.254287,0.113157 0.700466,0.220103 0.991507,0.237658 0.735259,0.04435 0.852488,-1.394307 0.153509,-1.883891 -0.302166,-0.211646 -0.533247,-0.758628 -0.595275,-1.40905 -0.09822,-1.029951 -0.07641,-1.062989 0.699358,-1.059063 1.044551,0.0053 1.380807,0.240987 1.602197,1.123077 0.120844,0.48148 0.355968,0.724954 0.700089,0.724954 0.284976,0 0.926912,0.311788 1.426526,0.692862 l 0.908388,0.692861 0.03047,-0.759007 c 0.01676,-0.417454 0.0093,-0.967367 -0.01663,-1.222028 -0.05917,-0.581666 0.400666,-0.57247 1.532187,0.03064 l 0.884565,0.471482 -0.686128,0.449569 c -0.439891,0.288228 -0.686128,0.690367 -0.686128,1.120542 0,0.369036 0.101756,0.608085 0.226124,0.531222 0.378845,-0.23414 1.297304,0.97137 1.594767,2.093189 0.169117,0.637788 0.538636,1.21628 0.929532,1.455208 0.934485,0.571189 6.124589,5.646977 6.039369,5.906354 -0.0394,0.119957 0.0637,0.134469 0.22907,0.03225 0.16539,-0.10222 0.37758,-0.06148 0.47153,0.09053 0.094,0.15201 0.63761,0.647342 1.20813,1.100738 0.57053,0.453396 1.987319,1.68373 3.148419,2.734077 1.161108,1.050347 2.244918,2.028784 2.408458,2.174305 4.82288,4.291424 10.75914,10.247524 10.67076,10.706414 -0.043,0.22335 -0.21207,0.40609 -0.3757,0.40609 -0.16362,0 -1.81295,-1.30969 -3.66517,-2.91042 -1.85223,-1.60073 -3.53243,-3.04261 -3.73378,-3.20417 -0.49272,-0.39535 -0.46494,-0.72683 0.0445,-0.53134 0.2443,0.0937 0.34245,0.0473 0.24232,-0.11474 -0.0926,-0.14978 -0.37324,-0.20727 -0.62371,-0.12778 -0.25048,0.0795 -0.68695,-0.0652 -0.96993,-0.32147 -0.28298,-0.25631 -1.22888,-1.05804 -2.102,-1.781617 -0.87313,-0.723576 -2.446028,-2.117095 -3.495328,-3.096707 -1.049309,-0.979612 -2.388759,-2.099377 -2.976569,-2.488367 -0.5878,-0.38899 -1.06873,-0.78508 -1.06873,-0.880201 0,-0.09512 -0.59914,-0.62025 -1.33143,-1.166953 -0.73229,-0.546704 -1.25922,-1.110849 -1.17096,-1.253657 0.0883,-0.142808 0.0597,-0.226936 -0.0635,-0.18695 -0.25645,0.08326 -2.81595,-2.033612 -4.470762,-3.697611 -0.615048,-0.618464 -1.337249,-1.126105 -1.604891,-1.128092 -0.267641,-0.002 -0.739401,-0.07145 -1.048354,-0.154369 -0.452505,-0.121442 -0.618652,0.01252 -0.854451,0.688934 -0.367725,1.054856 -0.979173,0.904039 -0.926053,-0.228416 0.02522,-0.537713 -0.08616,-0.831703 -0.315114,-0.831703 -0.533327,0 -0.743174,0.50286 -0.823998,1.974566 -0.174315,3.174031 -0.884275,4.336289 -0.884275,1.447623 0,-1.544086 -0.313829,-2.628439 -0.76071,-2.628439 -0.117109,0 -0.370102,0.47625 -0.562207,1.058333 -0.428794,1.29926 -0.79375,1.367265 -0.79375,0.147907 0,-0.500735 -0.09912,-0.971684 -0.22026,-1.046555 -0.121142,-0.07487 -1.032221,0.455823 -2.024618,1.179318 -2.001858,1.459431 -3.615366,2.018387 -6.29376,2.180303 -0.985469,0.05957 -1.869817,0.186371 -1.965216,0.28177 -0.0954,0.0954 -0.03915,1.037321 0.124996,2.093157 0.2129,1.369429 0.219963,2.486072 0.02464,3.895552 -0.326808,2.358289 -0.707154,3.335277 -1.966118,5.050324 -0.912655,1.24329 -0.997211,1.82864 -0.264153,1.82864 0.520216,0 0.974876,0.66694 0.787512,1.15521 -0.115255,0.30035 -0.354043,0.38094 -0.798315,0.26943 -0.77949,-0.19564 -0.846964,0.28988 -0.104707,0.75343 0.291042,0.18176 0.529167,0.48042 0.529167,0.6637 0,0.31748 -0.152082,0.38066 -1.058334,0.43968 -0.273232,0.0178 -0.446365,0.43798 -0.555731,1.34876 -0.08737,0.7276 -0.249803,1.81884 -0.360959,2.42497 -0.194869,1.0626 -0.170243,1.11835 0.688023,1.55741 0.489569,0.25044 1.336953,0.85585 1.883075,1.34534 0.546123,0.48949 1.110634,0.88999 1.25447,0.88999 0.487745,0 1.788988,1.59505 1.947399,2.38711 0.08667,0.43334 0.318394,0.78789 0.514947,0.78789 0.498569,0 1.529175,1.1519 1.567154,1.75159 0.01732,0.27355 -0.0448,0.73549 -0.138057,1.02653 -0.10486,0.32726 0.01689,0.77279 0.319094,1.16768 l 0.48865,0.6385 0.309661,-0.57861 c 0.270723,-0.50585 0.357977,-0.53029 0.693885,-0.19438 0.449829,0.44983 0.504659,0.95119 0.104024,0.95119 -0.154109,0 -0.206613,0.11906 -0.116676,0.26458 0.301831,0.48837 0.666888,0.27115 1.111618,-0.66146 0.242879,-0.50932 0.52849,-0.92604 0.634691,-0.92604 0.106202,0 0.649697,0.51553 1.207767,1.14562 1.490749,1.68314 2.105379,1.98407 4.591253,2.24798 3.237614,0.34371 4.46277,0.16236 4.804902,-0.71124 0.150346,-0.38389 0.437689,-1.08544 0.638542,-1.55899 l 0.365186,-0.86101 1.211468,0.92473 c 1.251961,0.95564 3.177596,1.63804 5.006676,1.77425 l 1.05128,0.0783 0.19975,-1.17011 c 0.30089,-1.76255 0.53207,-1.83637 2.18518,-0.69783 2.410778,1.66036 4.354036,2.30078 7.900006,2.6035 3.48445,0.29748 3.44548,0.31176 3.72087,-1.36427 0.0864,-0.52564 0.43666,-1.30261 0.77843,-1.7266 l 0.6214,-0.77091 1.03602,1.03549 c 0.56981,0.56952 1.72637,1.39267 2.57014,1.82924 0.84378,0.43656 1.76396,1.00459 2.04486,1.26228 0.28089,0.2577 0.5731,0.46393 0.64934,0.45828 0.34721,-0.0257 1.66814,0.34768 2.42519,0.68551 1.36011,0.60695 2.06917,0.47299 2.83902,-0.53634 0.83,-1.08818 0.87097,-1.32221 0.16537,-0.94459 -0.29012,0.15527 -1.16722,0.29914 -1.94909,0.31971 -1.09694,0.0289 -1.68647,-0.11837 -2.58136,-0.64469 -1.90087,-1.11797 -2.37686,-1.79388 -2.54144,-3.60889 -0.23713,-2.61513 0.77028,-4.21065 1.51833,-2.4047 0.47981,1.15836 1.23173,1.57697 2.83263,1.57697 1.90509,0 2.45467,-0.5565 2.45467,-2.48556 0,-1.23349 0.11232,-1.54746 0.82738,-2.31294 0.80495,-0.8617 0.81894,-0.91861 0.51616,-2.09997 -0.27425,-1.07007 -0.24295,-1.39668 0.26353,-2.75038 1.39678,-3.73323 -0.55726,-6.53615 -3.49688,-5.01602 -0.44286,0.22901 -0.85522,0.36636 -0.91637,0.30521 -0.26527,-0.26527 0.78689,-2.14188 1.7292,-3.08419 0.93752,-0.93753 1.17035,-1.03545 2.65913,-1.11838 0.8974,-0.05 1.83127,-0.016 2.07527,0.0756 1.09182,0.40988 2.37431,2.01493 3.09279,3.8707 0.66156,1.70875 0.78993,1.88006 1.16387,1.55326 0.23116,-0.20202 0.80725,-0.56332 1.28019,-0.80289 0.75883,-0.38438 0.94606,-0.39101 1.593,-0.0565 0.78574,0.40632 2.17732,1.69655 2.17732,2.01874 0,0.10749 0.37658,0.27075 0.83684,0.3628 1.51328,0.30266 2.36456,-0.90626 2.58648,-3.67309 0.14113,-1.75956 0.1816,-1.85209 0.81001,-1.85209 0.61723,0 0.67768,0.12072 0.9041,1.80561 0.21393,1.59192 0.17482,1.96612 -0.33044,3.16205 -0.33194,0.78566 -0.47467,1.45488 -0.33919,1.59035 0.24406,0.24406 1.71914,-0.39159 2.01333,-0.86758 0.0906,-0.14656 0.28374,-0.26647 0.42926,-0.26647 0.14552,0 0.19609,0.11084 0.11236,0.2463 -0.0837,0.13547 -0.0416,0.31465 0.0935,0.39818 0.13516,0.0835 0.21267,-0.14942 0.17224,-0.51768 -0.0404,-0.36826 0.0657,-0.7558 0.23587,-0.8612 0.38384,-0.23777 1.20686,-1.97452 1.20686,-2.54673 0,-0.23267 0.11608,-0.42304 0.25797,-0.42304 0.33694,0 0.0509,-1.54516 -0.4286,-2.3151 -0.51243,-0.82284 0.13816,-0.82284 0.87883,0 0.72252,0.80268 0.94732,1.51746 0.60643,1.92821 -0.19609,0.23628 -0.19748,0.39201 -0.005,0.51125 0.32961,0.20371 0.37193,1.7785 0.0575,2.13783 -0.20134,0.23005 -0.83836,2.20348 -0.83836,2.59716 0,0.0922 0.18331,0.16774 0.40736,0.16774 0.63755,0 2.4074,-1.96911 2.58987,-2.88146 0.28837,-1.44186 0.70694,-0.91071 0.70694,0.89708 0,1.02297 0.11238,1.71979 0.27736,1.71979 0.15256,0 0.77023,-0.23812 1.37262,-0.52916 0.60238,-0.29104 1.2872,-0.52917 1.5218,-0.52917 0.2346,0 0.53966,-0.10455 0.67791,-0.23234 0.46408,-0.42899 2.72915,-0.5264 3.05691,-0.13147 0.16607,0.20009 0.43732,0.36381 0.60278,0.36381 0.16546,0 0.44954,0.23813 0.6313,0.52917 0.32076,0.51361 1.6489,0.76157 1.6489,0.30785 0,-0.33218 2.69674,-1.63077 3.38655,-1.63077 0.90806,0 2.96345,1.41065 2.96345,2.03387 0,0.47867 0.88576,0.87655 1.95137,0.87655 0.5103,0 0.9919,0.10368 1.07022,0.23041 0.0783,0.12672 0.50207,0.30234 0.94166,0.39026 0.47,0.094 0.79925,0.32606 0.79925,0.56334 0,0.22192 0.18382,0.40349 0.40848,0.40349 0.22466,0 0.38447,0.14883 0.35514,0.33073 -0.0293,0.1819 0.0168,0.50932 0.10256,0.7276 0.0857,0.21828 0.20115,1.13736 0.25646,2.0424 0.0808,1.32123 0.22267,1.75141 0.72008,2.18281 0.34073,0.29551 0.7087,0.53729 0.81772,0.53729 0.30111,0 0.77915,1.5558 0.77915,2.5358 0,1.25146 -0.37033,2.05351 -1.47189,3.18782 -0.91108,0.93816 -0.9611,1.07651 -0.81999,2.26795 0.10287,0.86858 0.0541,1.26885 -0.15476,1.26885 -0.22269,0 -0.2261,0.0789 -0.0127,0.29238 0.21346,0.21346 0.19039,0.53651 -0.0855,1.19672 -0.56383,1.34944 -1.91613,2.47965 -2.9669,2.47965 -0.60963,0 -1.12782,0.60128 -1.74153,2.02081 -0.37203,0.860515 -0.76559,1.242645 -1.83937,1.785925 -0.75135,0.38015 -1.79589,0.69117 -2.32121,0.69117 -0.70941,0 -1.19762,0.22211 -1.89767,0.86333 -1.19855,1.09783 -3.12264,1.70979 -4.04889,1.28776 -1.02652,-0.46772 -2.65833,-0.37046 -3.20072,0.19076 -0.55709,0.57643 -1.97664,1.09774 -2.98919,1.09774 -0.3944,0 -1.44027,-0.37297 -2.32415,-0.82882 -0.88387,-0.45585 -1.79356,-0.75724 -2.02154,-0.66976 -0.62184,0.23862 -0.54522,3.23498 0.14045,5.4924 l 0.55494,1.82701 h 1.29179 c 1.805,0 4.4775,1.11486 4.4775,1.86783 0,0.10908 -0.65483,0.56789 -1.45518,1.01957 -1.6453,0.92856 -2.48512,1.97218 -4.11423,5.11269 -1.00696,1.941157 -2.95073,4.679577 -3.49257,4.920397 -0.543,0.24134 -0.0829,0.84858 0.82907,1.09414 1.09324,0.29438 1.74102,0.84252 1.41759,1.19954 -0.10788,0.11908 -0.0714,0.14575 0.0811,0.0593 0.42501,-0.24109 0.78951,0.10052 1.40704,1.31864 0.84232,1.66155 0.78993,1.74229 -0.99605,1.535 -2.5903,-0.30063 -7.54825,0.96064 -9.8792,2.51321 -1.19875,0.79846 -1.24788,1.05556 -0.20171,1.05556 0.43656,0 0.79375,0.1318 0.79375,0.29289 0,0.16109 0.17859,0.22436 0.39688,0.1406 0.21828,-0.0838 0.39687,-0.037 0.39687,0.10398 0,0.14096 0.17859,0.25628 0.39688,0.25628 0.21828,0 0.39687,0.17057 0.39687,0.37905 0,0.20847 0.24901,0.45808 0.55336,0.55467 0.38196,0.12123 0.51253,0.33174 0.42155,0.67965 -0.0725,0.27722 -0.0354,0.44448 0.0823,0.37169 0.25193,-0.15571 0.84959,1.41648 0.65695,1.72817 -0.21237,0.34362 0.6542,1.04927 1.28855,1.04927 0.32102,0 0.84851,0.18549 1.17219,0.41221 0.32367,0.22671 0.70819,0.33822 0.85449,0.24781 0.14629,-0.0904 0.33741,0.0218 0.42472,0.24925 0.0873,0.22751 0.28116,0.41365 0.43081,0.41365 0.47423,0 1.46931,1.26816 1.65366,2.10747 0.10206,0.4647 -0.0168,1.70759 -0.27958,2.9239 l -0.45711,2.11561 0.58457,0.50699 c 0.85761,0.74381 0.97343,2.88453 0.22702,4.19602 -0.72666,1.27677 -1.53416,2.17293 -1.95794,2.17293 -0.18569,0 -0.43282,0.1578 -0.54919,0.35068 -0.11637,0.19287 -0.40326,0.42086 -0.63752,0.50663 -0.23427,0.0858 -0.55789,0.67998 -0.71917,1.32047 -0.16127,0.64048 -0.53515,1.38345 -0.83083,1.65104 -0.29569,0.26759 -0.53761,0.60628 -0.53761,0.75264 0,0.37616 -1.59164,1.76901 -2.38125,2.08385 -0.96161,0.38343 -1.74634,0.50062 -3.94491,0.58916 -1.28034,0.0516 -2.0606,0.20669 -2.24896,0.44713 -0.15863,0.2025 -0.64561,0.53091 -1.08217,0.72979 -0.43656,0.19888 -0.99322,0.46222 -1.237,0.58521 -0.66054,0.33322 -4.2659,0.13928 -4.39106,-0.23621 -0.15507,-0.4652 -2.592,-0.38643 -3.56192,0.11514 -1.00831,0.52141 -3.34061,0.35884 -4.35116,-0.3033 -0.50634,-0.33177 -0.99729,-0.39772 -2.03003,-0.27273 -3.81931,0.46226 -4.61985,0.46002 -5.64205,-0.0158 -0.55648,-0.25902 -1.09051,-0.58613 -1.18673,-0.72692 -0.22129,-0.32379 -1.70061,-0.27557 -3.99551,0.13023 -1.31252,0.23209 -1.94694,0.23888 -2.381248,0.0255 -0.32562,-0.16 -0.8897,-0.3661 -1.2535,-0.458 -0.8647,-0.21843 -2.489288,-1.00223 -2.601728,-1.25523 -0.12936,-0.29105 -1.04426,-0.24203 -1.23473,0.0661 -0.0899,0.14552 -0.50665,0.26459 -0.92604,0.26459 -0.41938,0 -0.8361,0.11906 -0.92604,0.26458 -0.26199,0.42391 -4.194229,0.32243 -5.062986,-0.13066 -0.416816,-0.21739 -0.966207,-0.39598 -1.220868,-0.39688 -0.254662,-8.9e-4 -0.463021,-0.18022 -0.463021,-0.3985 0,-0.30916 -0.354711,-0.39688 -1.604894,-0.39688 -0.882692,0 -1.852376,0.13245 -2.154854,0.29433 -0.411137,0.22004 -0.824166,0.20875 -1.636252,-0.0447 -1.671593,-0.52173 -3.215408,-1.24162 -3.564377,-1.6621 -0.393426,-0.47405 -1.625328,-0.23244 -2.945873,0.57776 -1.09809,0.67372 -3.295455,0.76238 -4.085466,0.16485 -0.282474,-0.21365 -0.781463,-0.38846 -1.108864,-0.38846 -0.3274,0 -0.668858,-0.11906 -0.758795,-0.26458 -0.305173,-0.49379 -0.998359,-0.2674 -1.822807,0.59531 -0.451969,0.47294 -0.915686,0.85989 -1.030482,0.85989 -0.114796,0 -0.293674,0.12406 -0.397507,0.27568 -0.244324,0.35678 -2.192588,0.98354 -2.704638,0.87008 -0.23805,-0.0527 -0.38582,0.0962 -0.37252,0.3756 0.0934,1.96108 0.10283,1.98355 0.97014,2.30804 3.063836,1.1463 3.467967,1.41866 4.819797,3.24821 0.724376,0.98036 1.523054,1.2743 1.882437,0.69281 0.232897,-0.37684 3.141493,-0.13667 4.234836,0.34967 0.865508,0.385 1.198476,0.61486 2.130876,1.47106 0.789632,0.7251 1.807937,0.7589 2.894853,0.0961 1.12578,-0.68649 3.218807,-0.93393 4.63874,-0.54838 0.638243,0.1733 1.279504,0.33443 1.425025,0.35805 0.145521,0.0236 0.406253,0.13152 0.579406,0.23975 0.173153,0.10823 0.708934,-0.0435 1.190625,-0.33718 0.481691,-0.29368 1.084161,-0.53441 1.338823,-0.53496 0.254661,-5.4e-4 0.463021,-0.12005 0.463021,-0.26557 0,-0.32789 4.671895,-0.36065 4.873675,-0.0342 0.27874,0.45101 1.81041,0.58225 2.24703,0.19253 1.70829,-1.52482 5.127016,-2.21339 6.734016,-1.3563 1.01527,0.54149 1.82864,0.50913 3.14109,-0.12497 0.60238,-0.29105 1.25147,-0.52917 1.44242,-0.52917 0.19095,0 0.34718,-0.11906 0.34718,-0.26458 0,-0.15119 0.79375,-0.26459 1.85208,-0.26459 1.01865,0 1.85209,0.11104 1.85209,0.24676 0,0.13571 0.26789,0.32768 0.59531,0.4266 0.32742,0.0989 0.91992,0.4837 1.31666,0.85508 0.69843,0.65379 0.76776,0.66485 2.18291,0.34815 0.80386,-0.17989 1.63252,-0.49804 1.84147,-0.70699 0.22343,-0.22343 0.44484,-0.27485 0.53754,-0.12485 0.0867,0.14028 0.33691,0.18627 0.55602,0.10219 0.4481,-0.17196 2.75967,0.63279 2.75967,0.96075 0,0.11652 0.25011,0.27725 0.55579,0.35719 0.30604,0.08 0.47736,0.27223 0.38126,0.42773 -0.18429,0.29819 -0.14926,0.30707 1.68208,0.42679 2.10672,0.13773 2.83245,0.38065 3.71503,1.24353 0.83215,0.81359 0.86556,0.92196 0.73345,2.37899 -0.16661,1.83731 -0.008,2.59895 0.49909,2.40417 0.28049,-0.10763 0.3708,0.11934 0.3708,0.93191 0,1.7709 -0.72775,2.9456 -2.39174,3.86062 -0.47912,0.26346 -0.77095,0.75577 -1.01693,1.71553 -0.42435,1.65573 -1.58996,2.71167 -3.47314,3.14636 -0.72118,0.16647 -1.96631,0.73761 -2.76695,1.26921 -1.58531,1.05259 -3.3239,1.51054 -4.31055,1.13542 -0.84107,-0.31978 -2.50846,-0.30178 -3.39867,0.0367 -1.04375,0.39684 -2.94195,0.37939 -3.43715,-0.0316 -0.53592,-0.44477 -2.90347,-0.6419 -3.13867,-0.26133 -0.31417,0.50833 -3.10079,0.33233 -4.06724,-0.25689 -0.75793,-0.46209 -1.147188,-0.51318 -2.781598,-0.36507 -1.650838,0.14959 -2.073588,0.0919 -3.219788,-0.43919 -0.72569,-0.33626 -1.37897,-0.67997 -1.45174,-0.7638 -0.41797,-0.48156 -1.65337,-0.78647 -2.13725,-0.5275 -0.28573,0.15292 -0.654513,0.1946 -0.81951,0.0926 -0.183917,-0.11367 -0.226948,-0.0672 -0.111209,0.12005 0.421289,0.68167 -1.905373,0.44389 -3.703181,-0.37844 -1.563999,-0.71539 -2.888349,-0.81238 -3.903205,-0.28587 -0.519098,0.26931 -1.107253,0.2955 -2.47764,0.11034 -1.537957,-0.20781 -1.930432,-0.173 -2.723,0.24153 -1.194105,0.62454 -1.677583,1.07295 -1.294532,1.20063 0.158535,0.0529 0.349315,0.6379 0.423957,1.30012 l 0.135713,1.20404 1.690347,0.4834 c 0.929692,0.26587 1.690348,0.58336 1.690348,0.70552 0,0.12216 0.178594,0.22211 0.396875,0.22211 0.218281,0 0.396875,0.17157 0.396875,0.38126 0,0.55561 0.431206,0.73279 0.848796,0.34878 1.20418,-1.10736 3.104382,-1.30383 5.24772,-0.54258 1.125539,0.39975 1.35519,0.40791 1.985555,0.0705 0.945267,-0.50589 3.509451,-0.48402 4.353341,0.0371 0.36381,0.22467 0.89959,0.3651 1.19063,0.31208 1.59405,-0.29041 4.630208,-0.37434 4.630208,-0.12799 0,0.14986 0.35648,0.35077 0.79217,0.44647 0.435698,0.0957 0.896778,0.36091 1.024628,0.58937 0.14653,0.26182 0.8433,0.49892 1.8848,0.64135 1.72733,0.23623 3.70673,1.14761 3.70673,1.70671 0,0.17936 0.14883,0.37574 0.33073,0.4364 0.23808,0.0794 0.31567,0.79387 0.27698,2.55045 -0.0842,3.82333 -1.06965,4.91392 -5.03948,5.57729 -1.32246,0.22099 -1.91823,0.43638 -1.91823,0.69351 0,0.20514 -0.19133,0.37297 -0.425178,0.37297 -0.26449,0 -0.36904,-0.14632 -0.27662,-0.38714 0.10834,-0.28234 -0.11677,-0.43162 -0.83159,-0.55145 -0.53908,-0.0904 -1.337338,-0.26308 -1.773898,-0.38381 -0.99577,-0.27538 -4.84182,-0.7718 -5.57649,-0.71978 -1.144931,0.0811 -0.31076,2.30677 0.86456,2.30677 0.19047,0 0.3463,0.11906 0.3463,0.26458 0,0.34665 -0.18986,0.32147 -1.4552,-0.19295 z m 13.910892,-5.28432 c 0.13437,-0.35343 0.24431,-1.05422 0.24431,-1.55733 0,-1.32145 -1.688,-3.09946 -3.37613,-3.55616 -0.68974,-0.1866 -1.3791,-0.43468 -1.53191,-0.5513 -0.27613,-0.21072 -3.450572,-0.23108 -12.819041,-0.0822 -2.692135,0.0428 -5.490104,-0.025 -6.217708,-0.15067 -2.15589,-0.37227 -3.424125,-0.74951 -3.523661,-1.04812 -0.05138,-0.15413 -0.189912,-0.22059 -0.307858,-0.14769 -0.117946,0.0729 -0.532928,-0.0327 -0.922181,-0.23464 -0.468256,-0.24294 -0.589484,-0.41445 -0.358267,-0.50688 0.197519,-0.079 0.104483,-0.14878 -0.213973,-0.16058 -0.878182,-0.0326 -2.36822,-2.04913 -2.553691,-3.45609 -0.149201,-1.13183 0.36978,-2.9148 0.84843,-2.9148 0.1015,0 0.415356,-0.21437 0.697457,-0.47638 0.462573,-0.42963 0.954525,-0.69938 1.501416,-0.82329 0.107115,-0.0243 0.662248,-0.20906 1.233629,-0.41066 0.831564,-0.29339 2.007066,-0.32388 5.890662,-0.15278 2.668483,0.11756 5.417334,0.34673 6.108558,0.50926 2.927206,0.68829 3.699156,0.82468 4.667696,0.82468 0.56214,0 1.84036,0.16964 2.84047,0.37697 5.386712,1.11672 16.246922,1.28336 19.790252,0.30365 3.54983,-0.98149 6.28049,-3.23341 6.76792,-5.58135 0.37805,-1.82104 0.25276,-4.59959 -0.19967,-4.42829 -0.1819,0.0689 -0.33073,-0.0279 -0.33073,-0.21503 0,-0.43816 -1.80549,-2.09761 -2.28221,-2.09761 -0.19999,0 -0.36362,-0.10789 -0.36362,-0.23976 0,-0.13187 -0.59531,-0.32163 -1.32292,-0.4217 -0.7276,-0.10007 -1.32292,-0.27098 -1.32292,-0.3798 0,-0.10882 -0.50601,-0.21992 -1.12447,-0.24689 -1.38361,-0.0603 -2.04264,-0.16625 -2.65474,-0.42663 -0.56619,-0.24086 -9.2053,0.22327 -17.255162,0.92701 -4.9697,0.43447 -16.79898,0.77545 -17.510946,0.50476 -0.345674,-0.13142 -0.892905,-0.22371 -1.216068,-0.20507 -1.780109,0.10263 -9.018329,-0.41143 -10.377153,-0.73699 -2.058925,-0.4933 -4.622271,-1.42854 -5.144761,-1.87708 -1.71624,-1.47336 -2.16992,-1.95385 -2.99494,-3.17199 -0.70429,-1.03988 -0.98052,-1.77838 -1.12239,-3.0007 -0.1246,-1.07361 -0.0891,-1.72046 0.10519,-1.91472 0.16135,-0.16135 0.29336,-0.50929 0.29336,-0.7732 0,-0.87497 1.0344,-2.2747 2.10405,-2.84716 0.30613,-0.16384 0.48671,-0.41097 0.40129,-0.54919 -0.0854,-0.13822 0.12555,-0.25131 0.46884,-0.25131 0.34328,0 0.75621,-0.13206 0.91761,-0.29346 0.1614,-0.1614 0.631694,-0.32547 1.045102,-0.3646 0.413407,-0.0391 1.066293,-0.19693 1.450858,-0.35066 0.384565,-0.15373 0.950112,-0.2139 1.256771,-0.1337 0.312888,0.0818 0.557562,0.0204 0.557562,-0.13998 0,-0.16414 0.486975,-0.27601 1.144025,-0.26282 0.629214,0.0126 1.383944,-0.0532 1.677177,-0.14626 0.717095,-0.22759 10.920049,0.55479 11.299088,0.86644 0.164726,0.13544 1.252001,0.31385 2.416168,0.39648 1.164167,0.0826 2.711979,0.26627 3.439583,0.40812 1.627855,0.31734 4.759674,0.81468 6.879164,1.09243 0.87313,0.11441 2.00344,0.33674 2.5118,0.49406 0.50836,0.15732 1.704944,0.28603 2.659064,0.28603 0.954118,0 1.847878,0.10525 1.986118,0.23388 0.13825,0.12863 1.9685,0.43466 4.06723,0.68006 2.09873,0.24541 4.33032,0.62085 4.95908,0.83432 0.87434,0.29685 2.71487,0.39545 7.82579,0.41927 3.67542,0.0171 7.01001,-0.0469 7.41019,-0.14216 0.40019,-0.0953 1.05503,-0.22509 1.45521,-0.2884 1.80018,-0.28482 3.77031,-0.8062 3.77031,-0.99779 0,-0.11551 0.2749,-0.21001 0.61089,-0.21001 0.33599,0 0.84201,-0.17481 1.12448,-0.38846 0.28248,-0.21365 0.78148,-0.39225 1.1089,-0.39688 0.32743,-0.005 0.59532,-0.12747 0.59532,-0.27299 0,-0.14552 0.17859,-0.26459 0.39687,-0.26459 0.21828,0 0.39688,-0.11906 0.39688,-0.26458 0,-0.14552 0.14883,-0.26486 0.33073,-0.2652 0.1819,-3.5e-4 0.74744,-0.35725 1.25677,-0.79313 0.50932,-0.43588 0.99528,-0.79279 1.07992,-0.79313 0.36192,-0.001 1.94236,-2.82759 2.39557,-4.28376 0.53255,-1.71109 0.65655,-4.05138 0.22867,-4.31582 -0.14552,-0.0899 -0.26458,-0.44565 -0.26458,-0.79047 0,-0.34482 -0.17859,-0.80554 -0.39687,-1.02382 -0.21829,-0.21828 -0.39688,-0.56385 -0.39688,-0.76794 0,-0.20408 -0.29073,-0.52666 -0.64608,-0.71683 -0.35534,-0.19018 -0.80182,-0.65678 -0.99218,-1.0369 -0.19037,-0.38012 -0.58424,-0.7318 -0.87528,-0.78151 -0.29104,-0.0497 -0.56886,-0.19854 -0.61736,-0.33073 -0.0485,-0.13219 -0.2271,-0.24001 -0.39688,-0.23961 -0.39291,9.4e-4 -2.63484,-1.11556 -2.85878,-1.42369 -0.0929,-0.12779 -0.27674,-0.16567 -0.40859,-0.0842 -0.13185,0.0815 -0.71462,-0.0644 -1.29505,-0.32432 -0.58042,-0.25986 -1.64672,-0.56055 -2.36954,-0.66819 -0.72282,-0.10764 -1.43328,-0.28811 -1.5788,-0.40103 -0.57547,-0.44658 -2.1775,-0.5446 -2.88677,-0.17662 -0.3939,0.20435 -0.73507,0.47433 -0.75815,0.59995 -0.0231,0.12561 0.66852,0.41359 1.53689,0.63996 0.86838,0.22636 1.55946,0.52402 1.53574,0.66146 -0.0237,0.13743 0.55832,0.26439 1.29342,0.28212 0.93507,0.0225 1.40896,0.16164 1.57763,0.46302 0.13259,0.23693 0.42514,0.43079 0.6501,0.43079 0.22497,0 0.75484,0.24623 1.17748,0.54718 0.42265,0.30095 0.77241,0.44978 0.77725,0.33073 0.005,-0.11905 0.21627,0.0217 0.46983,0.31271 0.25356,0.29104 0.87468,0.74556 1.38026,1.01005 0.92931,0.48615 2.22636,2.15928 1.9813,2.55578 -0.0731,0.11835 0.0449,0.28345 0.26237,0.36689 0.21745,0.0834 0.39536,0.39358 0.39536,0.68919 0,0.2956 0.0893,0.53761 0.19843,0.53779 0.33158,5.5e-4 0.24112,3.41703 -0.0939,3.54558 -0.16628,0.0638 -0.38079,0.53422 -0.47668,1.04537 -0.11686,0.62295 -0.58585,1.32936 -1.42247,2.14259 -2.59204,2.5196 -2.97599,2.72089 -7.59812,3.98333 -2.34975,0.64178 -6.20609,0.8433 -12.17083,0.63599 -6.49944,-0.22589 -6.50383,-0.22622 -6.8963,-0.53305 -0.15494,-0.12113 -1.69757,-0.35199 -3.42807,-0.51303 -1.7305,-0.16104 -3.35207,-0.40289 -3.6035,-0.53745 -0.25143,-0.13456 -1.030508,-0.24984 -1.731298,-0.25618 -0.70079,-0.006 -1.809954,-0.12548 -2.464794,-0.26476 -2.59077,-0.55106 -6.10426,-1.1017 -9.128127,-1.43058 -1.74625,-0.18992 -3.234531,-0.37392 -3.307292,-0.40889 -0.07276,-0.035 -0.219489,-0.0502 -0.326063,-0.0338 -0.106575,0.0164 -0.701887,-0.13523 -1.322917,-0.33692 -1.538401,-0.4996 -5.953851,-0.78643 -11.977061,-0.77804 -4.96054,0.007 -6.031988,0.0802 -6.388707,0.4369 -0.09998,0.1 -0.370295,0.18252 -0.600703,0.18341 -0.230408,9e-4 -0.759958,0.17949 -1.176768,0.39688 -0.41682,0.21738 -0.87125,0.39524 -1.00984,0.39524 -0.1386,0 -0.65563,0.30787 -1.14895,0.68414 -0.49333,0.37628 -1.0198,0.60822 -1.16994,0.51543 -0.16277,-0.1006 -0.20937,-0.003 -0.11542,0.2419 0.0952,0.24804 0.014,0.41062 -0.20515,0.41062 -0.1995,0 -0.65707,0.47625 -1.01681,1.05833 -0.35975,0.58208 -0.7545,1.05833 -0.87724,1.05833 -0.12273,0 -0.14718,0.34586 -0.0543,0.76856 0.1029,0.46849 0.0495,0.84227 -0.13662,0.95733 -0.66409,0.41043 0.64804,4.92517 1.8016,6.19889 0.25147,0.27767 0.74929,0.87037 1.10627,1.31712 0.35698,0.44675 0.78888,0.81227 0.95979,0.81227 0.17091,0 0.46831,0.18985 0.66089,0.42189 0.43319,0.52197 2.822524,1.69478 3.452717,1.69478 0.255219,0 0.529846,0.10648 0.610282,0.23663 0.08044,0.13015 0.593479,0.29788 1.140094,0.37273 0.546615,0.0748 1.886815,0.26384 2.978221,0.41999 2.940333,0.42067 14.62692,0.77637 17.065625,0.51942 1.164166,-0.12266 3.069166,-0.2161 4.23333,-0.20764 1.16417,0.008 3.66448,-0.11688 5.55625,-0.27852 1.891773,-0.16163 4.927871,-0.35057 6.746881,-0.41985 1.81901,-0.0693 4.59339,-0.23813 6.16528,-0.37522 5.08083,-0.44312 9.50854,0.47789 11.69189,2.43203 0.87539,0.78349 1.19283,1.26459 1.19283,1.8078 0,0.40711 0.10603,0.77988 0.23563,0.82839 0.12961,0.0485 0.15237,0.62814 0.0506,1.28807 -0.13504,0.87554 -0.44788,1.47051 -1.15737,2.20109 -0.53478,0.55067 -1.09196,0.92727 -1.23818,0.8369 -0.14738,-0.0911 -0.20371,-0.002 -0.12639,0.19915 0.0879,0.22895 -0.23147,0.55224 -0.86293,0.87363 -0.55132,0.2806 -1.06193,0.5707 -1.13469,0.64465 -0.3258,0.33117 -2.96678,1.04156 -4.93992,1.32879 -2.28472,0.33258 -8.43519,0.16744 -10.14133,-0.2723 -0.50932,-0.13127 -2.05713,-0.31795 -3.439578,-0.41483 -1.38245,-0.0969 -2.622763,-0.24119 -2.756243,-0.32068 -0.13349,-0.0795 -1.02646,-0.23228 -1.98438,-0.33954 -0.95792,-0.10727 -3.40855,-0.4962 -5.445837,-0.8643 -3.402209,-0.61471 -9.745837,-1.06383 -9.504084,-0.67288 0.123091,0.19906 -1.244851,0.49524 -2.287332,0.49524 -0.409784,0 -0.810495,0.10587 -0.890469,0.23527 -0.07997,0.1294 -0.452501,0.31235 -0.827839,0.40655 -1.033637,0.25943 -2.403743,1.24457 -2.900526,2.08556 -0.980765,1.6603 -0.29056,5.44581 1.160418,6.36445 0.198321,0.12556 0.55592,0.42322 0.794664,0.66146 0.539166,0.53803 3.387568,1.70116 5.327043,2.17528 1.52587,0.37301 10.535062,0.53399 10.746582,0.19203 0.2167,-0.35035 8.118303,0.0556 9.361751,0.48094 1.52416,0.52138 2.91042,1.22215 2.91042,1.47123 0,0.10676 0.22168,0.40711 0.49264,0.66744 0.36474,0.35045 0.48494,0.82522 0.46302,1.82879 -0.0321,1.46729 0.44049,1.69582 0.91669,0.44331 z m -24.942202,-3.12869 c -0.08146,-0.0815 -0.229407,0.0654 -0.328766,0.32632 -0.143585,0.37708 -0.113194,0.40747 0.148112,0.14811 0.180822,-0.17947 0.262116,-0.39297 0.180654,-0.47443 z m 9.50444,-0.54973 c -0.08792,-0.0879 -0.316122,-0.0973 -0.507118,-0.0209 -0.211067,0.0845 -0.148372,0.14716 0.159852,0.15986 0.278915,0.0115 0.435185,-0.0511 0.347266,-0.13897 z m 1.65916,-0.52991 c 0,-0.0572 -0.1786,-0.10398 -0.39688,-0.10398 -0.21828,0 -0.396872,0.11532 -0.396872,0.25627 0,0.14096 0.178592,0.18775 0.396872,0.10399 0.21828,-0.0838 0.39688,-0.19909 0.39688,-0.25628 z m -12.77166,-4.49717 c -0.08792,-0.0879 -0.316122,-0.0973 -0.507118,-0.0209 -0.211067,0.0845 -0.148372,0.14716 0.159853,0.15985 0.278915,0.0115 0.435184,-0.051 0.347265,-0.13896 z m -2.529606,-1.22433 c -0.196339,-0.19634 -0.230773,-0.093 -0.115686,0.34706 0.09356,0.35777 0.213493,0.4777 0.279546,0.27954 0.06363,-0.19088 -0.01011,-0.47285 -0.16386,-0.6266 z m 40.629608,-2.21525 c -0.0879,-0.0879 -0.31612,-0.0973 -0.50712,-0.0209 -0.21107,0.0845 -0.14837,0.14715 0.15985,0.15985 0.27892,0.0115 0.43519,-0.051 0.34727,-0.13896 z m 0.26458,-0.79375 c -0.0879,-0.0879 -0.31612,-0.0973 -0.50712,-0.0209 -0.21106,0.0845 -0.14837,0.14715 0.15986,0.15985 0.27891,0.0115 0.43518,-0.051 0.34726,-0.13896 z m -27.114278,-1.3383 c -0.181901,-0.0734 -0.479557,-0.0734 -0.661458,0 -0.181901,0.0734 -0.03307,0.13346 0.330729,0.13346 0.363802,0 0.51263,-0.0601 0.330729,-0.13346 z m 27.582818,-1.94143 c 0.0899,-0.14553 0.0374,-0.26459 -0.11668,-0.26459 -0.15411,0 -0.2802,0.11906 -0.2802,0.26459 0,0.14552 0.0525,0.26458 0.11668,0.26458 0.0642,0 0.19026,-0.11906 0.2802,-0.26458 z m -40.542366,-1.23189 c -0.179131,-0.0725 -0.536319,-0.0769 -0.79375,-0.01 -0.257431,0.0671 -0.110869,0.12638 0.325694,0.13177 0.436562,0.005 0.647188,-0.0495 0.468056,-0.12197 z m 41.732986,-0.23894 c 0,-0.22687 -0.121,-0.3377 -0.2689,-0.2463 -0.14789,0.0914 -0.2004,0.27703 -0.11668,0.41249 0.22682,0.36699 0.38558,0.29856 0.38558,-0.16619 z m -37.113325,-0.80569 c -0.08792,-0.0879 -0.316122,-0.0973 -0.507118,-0.0209 -0.211067,0.0845 -0.148372,0.14715 0.159852,0.15985 0.278915,0.0115 0.435185,-0.051 0.347266,-0.13896 z m 46.219375,-2.39156 c 0.24307,-0.63344 0.0536,-0.68208 -0.32091,-0.0824 -0.17763,0.28442 -0.21562,0.51713 -0.0844,0.51713 0.13119,0 0.31359,-0.19563 0.40535,-0.43474 z m -8.84147,-4.75294 c 0,-0.0572 -0.17859,-0.10398 -0.39687,-0.10398 -0.21828,0 -0.39688,0.11532 -0.39688,0.25628 0,0.14095 0.1786,0.18774 0.39688,0.10398 0.21828,-0.0838 0.39687,-0.19909 0.39687,-0.25628 z m -50.077905,7.5e-4 c -0.08792,-0.0879 -0.316122,-0.0973 -0.507118,-0.0209 -0.211067,0.0845 -0.148372,0.14716 0.159852,0.15985 0.278915,0.0115 0.435185,-0.051 0.347266,-0.13896 z m 7.14375,-2.11667 c -0.08792,-0.0879 -0.316122,-0.0973 -0.507118,-0.0209 -0.211067,0.0845 -0.148372,0.14716 0.159852,0.15985 0.278915,0.0115 0.435185,-0.051 0.347266,-0.13896 z M 56.34838,147.86381 c -0.13942,-0.34855 -0.26104,-0.49464 -0.27027,-0.32464 -0.0224,0.41291 0.28582,1.19631 0.41848,1.06365 0.0579,-0.0579 -0.009,-0.39046 -0.14821,-0.73901 z m 40.916308,0.39704 c -0.0879,-0.0879 -0.31613,-0.0973 -0.50712,-0.0209 -0.21107,0.0845 -0.14837,0.14715 0.15985,0.15985 0.27892,0.0115 0.43519,-0.0511 0.34727,-0.13897 z m -16.40417,-17.19791 c -0.08792,-0.0879 -0.316122,-0.0973 -0.507118,-0.0209 -0.211067,0.0845 -0.148372,0.14716 0.159853,0.15985 0.278915,0.0115 0.435184,-0.051 0.347265,-0.13896 z m 49.762232,-1.30236 c -0.0815,-0.0815 -0.22941,0.0654 -0.32877,0.32632 -0.14359,0.37708 -0.11319,0.40747 0.14811,0.14811 0.18082,-0.17947 0.26212,-0.39297 0.18066,-0.47443 z m 11.29589,-2.50654 c 0.0899,-0.14552 0.0374,-0.26458 -0.11668,-0.26458 -0.15411,0 -0.2802,0.11906 -0.2802,0.26458 0,0.14552 0.0525,0.26458 0.11668,0.26458 0.0642,0 0.19026,-0.11906 0.2802,-0.26458 z m -60.854172,-0.52917 c 0.08994,-0.14552 0.03743,-0.26458 -0.116677,-0.26458 -0.154109,0 -0.280198,0.11906 -0.280198,0.26458 0,0.14552 0.0525,0.26459 0.116677,0.26459 0.06417,0 0.190261,-0.11907 0.280198,-0.26459 z m 60.019432,-2.52495 c -0.0862,-0.22456 -0.21342,-0.35154 -0.28278,-0.28219 -0.0694,0.0694 -0.0476,0.25309 0.0483,0.40829 0.2609,0.42213 0.41338,0.34012 0.23448,-0.1261 z m -12.0814,-0.69966 c -0.0845,-0.21106 -0.14716,-0.14837 -0.15985,0.15986 -0.0115,0.27891 0.051,0.43518 0.13896,0.34726 0.0879,-0.0879 0.0973,-0.31612 0.0209,-0.50712 z m -55.285732,-4.07899 c -0.08792,-0.0879 -0.316122,-0.0973 -0.507118,-0.0209 -0.211066,0.0845 -0.148372,0.14716 0.159853,0.15985 0.278915,0.0115 0.435184,-0.051 0.347265,-0.13896 z m 31.424782,-0.87014 c 1.16417,-0.15158 3.48589,-0.45322 5.15938,-0.67032 4.87635,-0.63258 10.63462,-2.0461 13.22916,-3.24745 0.80037,-0.37059 2.05268,-0.88132 2.78292,-1.13495 2.26581,-0.78698 9.89437,-6.25608 9.43662,-6.76534 -0.0995,-0.11075 -0.043,-0.12239 0.12576,-0.0259 0.38522,0.2204 3.35002,-3.26632 4.40061,-5.17529 0.42307,-0.76873 0.86054,-1.51674 0.97216,-1.662267 0.11163,-0.14552 0.53175,-1.26326 0.93362,-2.48387 0.83546,-2.53763 0.80066,-4.46775 -0.11801,-6.54456 -0.28561,-0.64566 -0.45364,-1.37872 -0.3734,-1.629 0.11186,-0.34892 0.0861,-0.37133 -0.11058,-0.0961 -0.18688,0.26158 -0.30752,0.27638 -0.44461,0.0546 -0.10348,-0.16743 -0.0291,-0.50757 0.16537,-0.75585 0.31153,-0.39784 0.30302,-0.41205 -0.0717,-0.1197 -0.35698,0.27852 -0.50556,0.22281 -0.92604,-0.34718 -1.30012,-1.76239 -9.50406,-7.487 -12.47824,-8.707158 -0.76673,-0.31455 -1.30251,-0.67262 -1.19062,-0.79572 0.11189,-0.12309 0.078,-0.1526 -0.0754,-0.0656 -0.23167,0.13149 -4.31099,-1.12342 -5.88675,-1.81092 -0.24697,-0.10775 -0.74669,-0.2421 -1.1105,-0.29855 -0.3638,-0.0564 -1.73515,-0.38515 -3.04743,-0.73044 -5.35674,-1.40949 -12.57166,-2.02447 -23.940072,-2.04057 -10.474417,-0.0148 -17.727078,0.5043 -17.727078,1.26888 0,0.45677 0.01038,0.45645 3.111702,-0.0949 2.184083,-0.38826 4.351236,-0.45825 14.218506,-0.45922 10.695332,-0.001 11.910512,0.0449 14.948962,0.56548 1.81901,0.31164 4.14073,0.6479 5.15937,0.74723 1.01865,0.0993 2.50693,0.34075 3.30729,0.53649 6.46278,1.58053 6.71477,1.65591 10.18646,3.04706 2.96533,1.188248 6.25372,2.919558 7.01146,3.691478 0.0728,0.0741 0.7276,0.54536 1.45521,1.04719 0.7276,0.50183 1.38245,0.9811 1.45521,1.06504 0.0728,0.0839 0.99769,0.78758 2.0554,1.56364 3.95325,2.90057 5.28678,6.69664 3.86073,10.99007 -0.83881,2.52541 -4.91731,8.147627 -5.60306,7.723807 -0.53266,-0.3292 -0.35759,-0.6332 0.93157,-1.61755 1.24544,-0.95096 1.61929,-1.46286 3.34118,-4.574947 1.15697,-2.09105 1.6011,-4.81769 0.78474,-4.81769 -0.27623,0 -0.61534,0.10022 -0.75358,0.22272 -0.72811,0.64514 -12.23604,2.24652 -19.30136,2.68587 -2.18281,0.13574 -5.27843,0.3668 -6.87916,0.51348 -1.60073,0.14667 -3.7178,0.28752 -4.7046,0.31299 -0.9868,0.0255 -1.87155,0.17151 -1.96612,0.32452 -0.0946,0.15302 0.22802,0.58214 0.71687,0.95359 0.48886,0.37146 1.25081,1.019667 1.69324,1.440467 0.44243,0.4208 2.23691,1.90322 3.98772,3.29427 1.75082,1.39105 4.07627,3.32123 5.16768,4.2893 1.0914,0.96806 2.68295,2.32613 3.53677,3.01791 1.73601,1.40657 1.41931,1.42551 4.26844,-0.25528 0.87312,-0.51509 2.18281,-1.24579 2.91041,-1.62378 0.72761,-0.378 2.35998,-1.50275 3.6275,-2.49946 1.51556,-1.19174 2.36911,-1.70779 2.49304,-1.50726 0.23204,0.37545 -2.01518,2.37799 -2.47404,2.20467 -0.17724,-0.0669 -0.404,0.0105 -0.5039,0.17219 -0.11901,0.19255 -0.0535,0.2208 0.18996,0.0819 0.55661,-0.31752 1.6e-4,0.17632 -1.13209,1.00472 -0.536,0.39215 -1.08696,0.71301 -1.22438,0.71301 -0.13741,0 -0.40576,0.18788 -0.59634,0.41751 -0.50924,0.61359 -2.88762,1.75794 -3.31377,1.59441 -0.20181,-0.0774 -0.33858,0.004 -0.30395,0.18041 0.0346,0.17666 -0.14411,0.30489 -0.3972,0.28493 -0.2531,-0.0199 -0.40702,0.0497 -0.34206,0.15484 0.16351,0.26457 -1.44565,0.9996 -2.67685,1.22273 -0.56036,0.10155 -1.31649,0.33185 -1.68029,0.51177 -1.8932,0.93629 -8.33404,2.56355 -12.53437,3.16676 -6.40106,0.91925 -20.022672,1.42708 -25.816431,0.96245 -4.755429,-0.38136 -11.094411,-1.18745 -13.848942,-1.76109 -7.754037,-1.6148 -15.642117,-4.53956 -19.670787,-7.29359 -2.92281,-1.99805 -6.0121,-5.57368 -6.71794,-7.77552 -0.1866,-0.58208 -0.57813,-1.594107 -0.87007,-2.248957 -0.67527,-1.51472 -0.90895,-5.09206 -0.44164,-6.76113 0.18443,-0.6587 0.67395,-1.62375 1.08784,-2.14456 0.41389,-0.52081 0.69092,-1.04661 0.61562,-1.16844 -0.30845,-0.49909 -0.94722,0.16987 -1.74884,1.83151 -0.76147,1.57841 -0.84953,2.00642 -0.85214,4.14158 -0.002,1.79563 0.14901,2.83673 0.6148,4.23333 0.82964,2.487547 2.25319,5.306057 3.38159,6.695307 1.40017,1.72382 5.48399,4.74955 8.00964,5.93439 1.23693,0.58027 3.20146,1.50364 4.36563,2.05192 1.97878,0.93194 4.24094,1.5548 11.906245,3.27827 3.700097,0.83193 8.955593,1.49126 14.022916,1.75926 5.117085,0.27063 19.484129,0.11295 22.224999,-0.24392 z m 3.7648,0.0764 c -0.0879,-0.0879 -0.31612,-0.0973 -0.50711,-0.0209 -0.21107,0.0845 -0.14838,0.14716 0.15985,0.15985 0.27891,0.0115 0.43518,-0.051 0.34726,-0.13896 z m -17.794812,-1.72452 c -0.35911,-1.63505 -3.790632,-11.7764 -4.510177,-13.32918 -0.4046,-0.87312 -0.713487,-1.68011 -0.686415,-1.7933 0.149435,-0.6248 -0.980277,-0.37523 -2.79419,0.61728 -6.911577,3.78178 -20.721906,10.83332 -21.216876,10.83332 -0.15746,0 -0.28629,0.10098 -0.28629,0.22439 0,0.89602 14.633093,3.49969 21.960419,3.90744 1.67349,0.0931 3.092318,0.21359 3.152952,0.2677 0.06063,0.0541 1.11189,0.0984 2.336126,0.0984 h 2.225881 z m 13.897722,0.0441 c 7.17966,-0.81689 6.83338,-0.74552 13.50494,-2.78321 1.67965,-0.51301 3.17785,-0.93275 3.32934,-0.93275 0.15149,0 0.27544,-0.17335 0.27544,-0.38523 0,-0.21188 -0.1064,-0.31948 -0.23645,-0.2391 -0.31686,0.19582 -1.25231,-0.18731 -5.62848,-2.30524 -2.03729,-0.98599 -4.29948,-2.03092 -5.02708,-2.32207 -2.22498,-0.89032 -3.33304,-1.51259 -3.1167,-1.7503 0.11346,-0.12465 0.0503,-0.13656 -0.14042,-0.0264 -0.19068,0.11011 -0.72646,0.0522 -1.19062,-0.12861 -1.65857,-0.64621 -7.840508,-4.0301 -7.719668,-4.22562 0.0677,-0.10962 -0.0839,-0.18299 -0.337,-0.16304 -0.2531,0.02 -0.43896,-0.0869 -0.41302,-0.23747 0.074,-0.42962 -1.550484,-0.30186 -1.798594,0.14146 -0.20514,0.36653 -0.57529,1.72694 -3.04321,11.18481 -0.48503,1.85877 -1.00914,3.61741 -1.1647,3.90807 -0.15556,0.29066 -0.22927,0.61532 -0.16379,0.72145 0.15419,0.24996 9.607522,-0.0855 12.870012,-0.4567 z m -12.030362,-5.30346 c 0.54661,-2.25557 1.51253,-5.69233 2.14648,-7.63726 0.63395,-1.94491 1.15263,-3.55226 1.15264,-3.57187 2e-5,-0.10631 -10.089718,0.044 -10.197635,0.15189 -0.129526,0.12952 0.889956,2.61225 1.640627,3.99539 0.422424,0.77833 1.615286,4.40558 3.051888,9.28018 0.59197,2.00862 0.90368,2.72897 1.03043,2.38125 0.1,-0.2742 0.62895,-2.344 1.17557,-4.59958 z m -36.785258,2.64584 c 0.47234,-0.20298 0.47777,-0.22939 0.0505,-0.24599 -0.26325,-0.0102 -0.4059,-0.1363 -0.31699,-0.28015 0.0945,-0.15287 -0.0182,-0.19254 -0.27115,-0.0955 -0.32004,0.12281 -0.34808,0.21844 -0.10763,0.36705 0.23007,0.14219 0.17853,0.23851 -0.17626,0.32936 -0.28849,0.0739 -0.33288,0.13353 -0.10455,0.14049 0.21828,0.007 0.635,-0.0902 0.92604,-0.21529 z m 70.96896,0.10473 c -0.0879,-0.0879 -0.31612,-0.0973 -0.50712,-0.0209 -0.21106,0.0845 -0.14837,0.14716 0.15986,0.15985 0.27891,0.0115 0.43518,-0.051 0.34726,-0.13896 z M 55.26759,113.3943 c 0,-0.0558 -0.23829,-0.16374 -0.52953,-0.23991 -0.29124,-0.0762 -0.46281,-0.0305 -0.38126,0.10144 0.14241,0.23043 0.91079,0.34725 0.91079,0.13847 z m 16.05056,-5.46578 c 2.643171,-1.31414 5.238068,-2.68271 5.766438,-3.04127 0.528369,-0.35857 1.00049,-0.65194 1.049158,-0.65194 0.04867,0 0.784577,-0.41916 1.635356,-0.93148 0.850778,-0.51231 1.704824,-0.87086 1.89788,-0.79678 0.193056,0.0741 0.293521,0.0417 0.223256,-0.072 -0.07027,-0.1137 0.523051,-0.55882 1.318481,-0.98916 0.795431,-0.43035 1.449063,-0.90151 1.452515,-1.04703 0.0035,-0.14552 -0.625814,-0.39872 -1.398369,-0.562657 -1.6801,-0.35653 -4.376149,-1.35703 -4.590233,-1.70343 -0.346747,-0.56104 -1.187334,-0.16168 -2.791105,1.32605 -0.932924,0.865417 -2.193341,1.966747 -2.800926,2.447387 -1.655423,1.30956 -5.240321,4.50192 -7.62655,6.79144 -1.164166,1.11698 -2.676571,2.49541 -3.360901,3.06316 -0.68433,0.56776 -1.19216,1.11655 -1.12851,1.21953 0.0636,0.10299 1.33793,-0.45394 2.831735,-1.23761 1.493805,-0.78367 4.878604,-2.50006 7.521775,-3.8142 z m -11.22365,4.73899 c 0.30734,-0.16448 1.37971,-1.08721 2.38306,-2.05052 1.003346,-0.9633 1.964454,-1.75146 2.135795,-1.75146 0.171342,0 0.31153,-0.13766 0.31153,-0.30591 0,-0.31909 1.032826,-1.36624 3.047519,-3.08979 0.652198,-0.55795 2.019252,-1.82191 3.037897,-2.80879 1.018646,-0.98688 2.274179,-2.08013 2.790074,-2.42945 2.509152,-1.698947 3.012543,-2.463997 1.641697,-2.495047 -0.941155,-0.0213 -9.822025,-0.86508 -12.604732,-1.19756 -2.27968,-0.27238 -6.25064,-0.6313 -11.33739,-1.02473 -1.7084,-0.13213 -3.20139,-0.29909 -3.31776,-0.371 -0.11637,-0.0719 -1.0403,-0.20033 -2.05319,-0.28536 -1.01289,-0.085 -2.34852,-0.21998 -2.96806,-0.29989 -0.88479,-0.11412 -1.16175,-0.0533 -1.29099,0.2835 -0.22205,0.57864 0.52814,3.52598 1.38142,5.427327 0.38508,0.85808 0.60479,1.69133 0.49347,1.87146 -0.12574,0.20345 -0.0909,0.25689 0.0932,0.14309 0.33967,-0.20993 1.16859,0.92633 1.05495,1.4461 -0.042,0.19222 0.0984,0.3549 0.31205,0.36151 0.21365,0.007 0.64398,0.46756 0.95628,1.02432 0.31231,0.55675 1.03047,1.38671 1.59592,1.84434 0.56545,0.45763 1.09633,0.92755 1.17972,1.04426 0.22976,0.32154 6.90397,3.63974 7.32096,3.63974 0.20766,0 0.28281,0.13113 0.17507,0.30547 -0.11511,0.18624 -0.0728,0.23376 0.10846,0.12175 0.16348,-0.10104 0.74742,0.0539 1.29765,0.3443 1.17229,0.61873 1.50192,0.65561 2.25544,0.25234 z m 63.17101,-0.20438 c 0,-0.13137 -0.63526,-0.66052 -1.4117,-1.17589 -1.33913,-0.88886 -3.35748,-2.56443 -4.53327,-3.76336 -0.29553,-0.30135 -2.2042,-1.84271 -4.24149,-3.42527 -2.03729,-1.58255 -4.58254,-3.63786 -5.65612,-4.567367 -1.21878,-1.05523 -2.1132,-1.64095 -2.38125,-1.5594 -0.23611,0.0718 -1.44133,0.49612 -2.67825,0.94286 -1.23693,0.44674 -2.546618,0.81623 -2.910418,0.82109 -0.91206,0.0122 -1.85208,0.285247 -1.85208,0.538027 0,0.11556 0.55637,0.47945 1.23637,0.80864 0.68001,0.32918 1.429248,0.78629 1.664978,1.01579 0.23574,0.2295 0.66163,0.45405 0.94644,0.49901 0.28481,0.045 0.81779,0.2961 1.18441,0.55811 0.36662,0.26201 0.94103,0.56348 1.27648,0.66995 0.33545,0.10647 1.40471,0.58351 2.37613,1.0601 2.76356,1.3558 5.56824,2.66476 7.58706,3.54092 1.01865,0.44209 3.45943,1.57963 5.42396,2.52788 3.75036,1.81022 3.96875,1.89325 3.96875,1.50891 z m -71.96667,-0.12971 c 0,-0.0572 -0.18477,-0.17489 -0.41061,-0.26155 -0.23546,-0.0904 -0.34167,-0.046 -0.24897,0.10398 0.15538,0.25141 0.65958,0.37186 0.65958,0.15757 z m -0.66145,-0.95435 c -0.0899,-0.14552 -0.30533,-0.26276 -0.47864,-0.26053 -0.18934,0.002 -0.15671,0.10642 0.0818,0.26053 0.5083,0.32849 0.59989,0.32849 0.39688,0 z m 85.89104,-3.37344 c 0.3291,-0.41964 0.31975,-0.429 -0.0999,-0.0999 -0.44073,0.34564 -0.58089,0.56291 -0.36312,0.56291 0.0549,0 0.2633,-0.20836 0.46302,-0.46302 z m -91.84417,-1.50574 c 0,-0.0642 -0.11906,-0.19026 -0.26458,-0.2802 -0.14552,-0.0899 -0.26459,-0.0374 -0.26459,0.11668 0,0.15411 0.11907,0.2802 0.26459,0.2802 0.14552,0 0.26458,-0.0525 0.26458,-0.11668 z m -2.28995,-2.40828 c -0.0862,-0.22456 -0.21342,-0.35154 -0.28277,-0.28219 -0.0694,0.0694 -0.0476,0.25308 0.0483,0.40829 0.26089,0.42214 0.41338,0.34013 0.23447,-0.1261 z m -1.23348,-3.34549 c -0.0845,-0.21107 -0.14715,-0.14837 -0.15985,0.15985 -0.0115,0.27891 0.0511,0.43518 0.13897,0.34727 0.0879,-0.0879 0.0973,-0.31613 0.0209,-0.50712 z m -2.99985,-1.152427 c -0.0862,-0.22456 -0.21342,-0.35154 -0.28277,-0.28219 -0.0694,0.0694 -0.0476,0.25309 0.0483,0.40829 0.26089,0.422127 0.41337,0.340117 0.23447,-0.1261 z m 58.300778,0.14946 c 1.281384,-0.15254 3.288984,-0.58341 4.461312,-0.95749 4.31416,-1.37659 6.02337,-2.83767 5.87938,-5.02587 -0.0404,-0.61344 -0.18293,-1.04771 -0.3168,-0.96505 -0.13387,0.0827 -0.1697,-0.0418 -0.0796,-0.27651 0.11501,-0.2997 0.0496,-0.38299 -0.21962,-0.27968 -0.21087,0.0809 -0.3834,0.0252 -0.3834,-0.12372 0,-0.14896 0.14883,-0.32816 0.33073,-0.39821 0.1819,-0.0701 0.0926,-0.12365 -0.19844,-0.1191 -0.29104,0.005 -1.42213,-0.38573 -2.51354,-0.86728 -2.57443,-1.13591 -9.260422,-2.33445 -9.260422,-1.66004 0,0.13925 1.27144,0.40097 2.82542,0.58161 5.597612,0.65067 9.080832,2.4364 9.080832,4.65544 0,1.26339 -1.05315,2.22206 -3.62878,3.30321 -3.530808,1.48211 -5.113352,1.71885 -11.452472,1.71321 -5.403408,-0.005 -5.821155,-0.042 -8.33437,-0.74132 -1.455208,-0.40493 -2.923343,-0.91506 -3.262521,-1.13362 -0.339178,-0.21856 -0.813105,-0.32201 -1.053171,-0.22989 -0.662164,0.2541 1.436768,1.14164 4.712567,1.99273 2.392952,0.62172 3.353847,0.72783 6.930619,0.76536 2.283876,0.024 5.200906,-0.0812 6.482296,-0.23378 z m 1.668334,-1.42263 c 4.463908,-0.90419 6.972478,-2.29124 7.304028,-4.03857 0.19091,-1.0061 -0.41891,-1.66131 -2.43306,-2.61416 -1.83261,-0.86696 -3.169448,-1.13821 -7.738202,-1.57009 -5.249455,-0.49623 -11.214884,-0.0834 -14.051682,0.97238 -2.005717,0.74649 -2.593148,1.16989 -3.097405,2.23253 -0.360403,0.7595 -0.379914,1.08027 -0.11873,1.95202 0.171899,0.57375 0.433853,1.04318 0.582121,1.04318 0.148268,0 0.196836,0.1177 0.107929,0.26155 -0.09038,0.14624 0.0081,0.19642 0.223317,0.11383 0.21173,-0.0813 0.902524,0.12408 1.535096,0.45629 3.385059,1.77775 11.944424,2.35415 17.686588,1.19104 z m 45.772918,-0.63561 c 0,-0.0455 -0.23812,0.0446 -0.52917,0.2004 -0.29104,0.15576 -0.52916,0.39691 -0.52916,0.53589 0,0.13897 0.23812,0.0488 0.52916,-0.20041 0.29105,-0.24919 0.52917,-0.49034 0.52917,-0.53588 z m -28.17812,-1.00157 c 4.36562,-0.37213 8.14602,-0.62222 8.40088,-0.55575 0.25486,0.0665 0.39667,0.0129 0.31512,-0.11904 -0.0821,-0.13288 0.53741,-0.24097 1.38869,-0.2423 1.58393,-0.002 5.37335,-0.44514 10.00364,-1.16859 1.45521,-0.22737 3.02576,-0.4141 3.49011,-0.41496 0.76341,-0.001 1.37179,-0.38722 1.0764,-0.68262 -0.30807,-0.30807 -7.0144,-0.88089 -12.10714,-1.03412 -3.12869,-0.0941 -6.14858,-0.29076 -6.71085,-0.43692 -0.56227,-0.14617 -3.36024,-0.30428 -6.21771,-0.35136 -2.85747,-0.0471 -5.8275,-0.0984 -6.60007,-0.11398 -0.94837,-0.0192 -1.34626,-0.12291 -1.22484,-0.31937 0.12639,-0.20451 0.0131,-0.20174 -0.38126,0.009 -0.67575,0.36165 -0.67806,0.38637 -0.11618,1.24391 0.28761,0.43894 0.4226,1.11039 0.38178,1.89897 -0.0532,1.02773 -0.213,1.35324 -1.01428,2.06611 -0.93675,0.83338 -0.94152,0.84789 -0.31563,0.95934 0.34953,0.0622 0.87363,0.0737 1.16467,0.0256 0.29104,-0.0482 4.10104,-0.39207 8.46667,-0.76421 z m -39.317569,-0.0211 c -0.585389,-0.70536 -0.379759,-3.65662 0.312931,-4.49126 0.470689,-0.56714 3.914665,-2.38855 5.468695,-2.89221 0.763984,-0.24761 1.389062,-0.55633 1.389062,-0.68606 0,-0.12972 -0.863203,-0.78463 -1.918229,-1.45536 -1.055026,-0.67073 -2.870729,-1.8456 -4.034895,-2.61084 -3.302189,-2.17061 -4.706549,-3.04536 -4.889151,-3.04536 -0.299381,0 -1.129947,3.67019 -0.971287,4.29202 0.193618,0.75883 1.961173,3.13546 3.521643,4.73516 l 1.192005,1.22196 -2.866189,0.0691 c -1.576403,0.038 -3.125299,0.0668 -3.44199,0.064 -1.000936,-0.009 -0.397594,0.63868 1.145176,1.22907 0.804149,0.30773 1.666862,0.55951 1.917142,0.55951 0.250279,0 0.681674,0.16571 0.958656,0.36824 0.427882,0.31287 0.450506,0.43222 0.150465,0.79375 -0.443303,0.53415 -1.662595,0.54217 -4.346516,0.0286 -1.140588,-0.21826 -2.466851,-0.39683 -2.947251,-0.39683 -0.4804,0 -1.154536,-0.23037 -1.498079,-0.51194 -0.536474,-0.43969 -0.578714,-0.58731 -0.299313,-1.04607 0.178921,-0.29377 0.232477,-0.5915 0.119013,-0.66163 -0.113464,-0.0701 -1.926729,0.0533 -4.029479,0.27419 -2.10275,0.22093 -5.60912,0.56492 -7.79193,0.76444 -4.55205,0.41607 -6.46454,0.71818 -6.08504,0.96124 0.27754,0.17776 4.6884,0.66738 14.02254,1.55656 3.055939,0.29111 7.044533,0.69934 8.863543,0.90718 3.710915,0.42401 5.850176,0.57831 6.16441,0.44463 0.116207,-0.0494 0.06854,-0.26188 -0.105932,-0.4721 z m 0.922698,-0.97764 c -0.43416,-0.91045 -0.432534,-1.00627 0.03466,-2.04232 0.269605,-0.59787 0.683857,-1.22723 0.92056,-1.39857 0.236703,-0.17133 0.53754,-0.49011 0.668525,-0.70839 0.347296,-0.57875 -1.169884,0.41966 -1.92419,1.26624 -0.715985,0.80359 -0.792695,2.34709 -0.175922,3.5398 0.615281,1.18982 1.062753,0.5729 0.476369,-0.65676 z m -4.599926,-1.23886 c -0.218281,-0.14107 -0.575469,-0.24994 -0.79375,-0.24194 -0.261688,0.01 -0.216625,0.092 0.132292,0.24194 0.727362,0.31255 1.145107,0.31255 0.661458,0 z m 67.814647,-4.13537 -1.00735,-2.06801 -3.96875,-2.84613 c -2.18282,-1.56536 -4.76595,-3.23244 -5.7403,-3.70461 -1.19177,-0.57753 -1.66801,-0.9338 -1.45521,-1.0886 0.20524,-0.1493 0.1487,-0.17588 -0.16101,-0.0757 -0.26524,0.0858 -1.07352,-0.14766 -1.81902,-0.525428 -1.41477,-0.71692 -4.33719,-1.75497 -6.57487,-2.33542 -1.23654,-0.32075 -1.35511,-0.30936 -1.60312,0.15405 -0.1473,0.27523 -0.3993,0.41916 -0.56,0.31984 -0.18021,-0.11137 -0.21702,-0.0589 -0.096,0.1368 0.11523,0.18645 -0.23329,0.88552 -0.8448,1.69453 -0.57252,0.757428 -1.38653,1.869758 -1.80892,2.471858 -1.37653,1.96221 -4.57415,5.59513 -5.93382,6.74163 -0.73112,0.61648 -1.28694,1.24863 -1.23516,1.40477 0.0612,0.18463 2.26047,0.34447 6.29029,0.45718 8.45904,0.23659 17.75315,0.66955 18.23468,0.84944 0.21829,0.0815 1.7661,0.27646 3.43959,0.43314 1.67349,0.15668 3.63802,0.44338 4.36562,0.6371 1.2181,0.32432 1.32936,0.31496 1.40424,-0.11812 0.0447,-0.25869 -0.372,-1.40095 -0.92605,-2.53835 z m -84.61569,2.01364 c 2.18281,-0.15806 4.14735,-0.35052 4.36563,-0.42769 0.21828,-0.0772 1.52797,-0.24875 2.91041,-0.38128 1.857839,-0.1781 2.599822,-0.35813 2.844274,-0.69008 0.205907,-0.27961 0.344897,-1.45356 0.368269,-3.11052 0.02065,-1.46378 0.05393,-3.37579 0.07396,-4.24891 0.0488,-2.12716 -0.142377,-2.74544 -1.341491,-4.338458 -1.247336,-1.6571 -1.199245,-1.65876 -6.456742,0.22394 -4.46613,1.599308 -4.86456,1.765848 -8.37361,3.499938 l -2.69889,1.33374 -0.56254,1.88938 c -0.3094,1.03915 -0.73201,2.4166 -0.93914,3.06099 -0.80883,2.51638 -0.52293,2.90907 2.13696,2.93519 0.7276,0.007 1.62057,0.18015 1.98437,0.38446 0.3638,0.20431 0.89958,0.32314 1.19063,0.26408 0.29104,-0.0591 2.3151,-0.23671 4.49791,-0.39478 z m -12.94742,-0.54616 c 0.009,-0.20615 -0.0352,-0.47683 -0.0992,-0.60151 -0.14141,-0.27543 -0.56971,0.3529 -0.57535,0.84405 -0.005,0.47239 0.65267,0.23578 0.67457,-0.24254 z m 1.3542,-0.29214 c -0.0845,-0.21107 -0.14715,-0.14837 -0.15985,0.15985 -0.0115,0.27892 0.0511,0.43519 0.13897,0.34727 0.0879,-0.0879 0.0973,-0.31612 0.0209,-0.50712 z m 29.921712,-0.36804 c 0.568544,-0.11785 0.521556,-0.22349 -0.859896,-1.93328 -0.803716,-0.99475 -1.461303,-1.89327 -1.461303,-1.99671 0,-0.10344 -0.189399,-0.37747 -0.420886,-0.60896 -0.357476,-0.35748 -0.45652,-0.36459 -0.657407,-0.0472 -0.130086,0.2055 -0.242067,0.55224 -0.248846,0.77052 -0.0068,0.21828 -0.30517,0.99218 -0.663091,1.71979 -0.632715,1.28622 -0.798161,2.0182 -0.519214,2.29715 0.150958,0.15096 3.881127,-0.004 4.830643,-0.20126 z m 32.455938,-0.25222 c 0.28247,-0.21366 0.41526,-0.38846 0.29508,-0.38846 -0.12017,0 0.5008,-0.74414 1.37995,-1.65365 0.87914,-0.9095 1.91807,-2.04092 2.30872,-2.51425 0.39809,-0.48236 0.84502,-0.78351 1.01688,-0.68519 0.16863,0.0965 0.22696,0.0866 0.12962,-0.0219 -0.21548,-0.24028 0.83866,-1.50607 1.11303,-1.3365 0.10716,0.0662 0.17852,-0.0867 0.15857,-0.33976 -0.0199,-0.25309 0.11255,-0.43041 0.29445,-0.39403 0.1819,0.0364 0.33073,-0.0599 0.33073,-0.21405 0,-0.15411 0.13746,-0.19524 0.30546,-0.0914 0.19583,0.12103 0.23336,0.0721 0.10458,-0.13626 -0.11618,-0.18798 0.0198,-0.56783 0.32244,-0.90078 0.91798,-1.00986 2.7071,-3.800148 2.7071,-4.221938 0,-0.28727 -1.07035,0.19233 -3.63802,1.63011 -2.00091,1.120418 -4.1619,2.419348 -4.80219,2.886508 -0.6403,0.46716 -1.29727,0.84939 -1.45994,0.84939 -0.16267,0 -0.74222,0.30338 -1.2879,0.67418 -0.54568,0.37079 -1.1275,0.59052 -1.29293,0.48828 -0.16542,-0.10224 -0.22886,-0.0695 -0.14096,0.0727 0.15943,0.25797 -3.66398,2.5998 -5.313548,3.25454 -1.20863,0.47973 -0.93076,0.89643 0.759458,1.13887 0.78833,0.11308 1.47078,0.31497 1.51657,0.44865 0.0458,0.13368 0.22437,0.19451 0.39687,0.13517 0.1725,-0.0593 1.14707,0.2943 2.16572,0.78587 2.19392,1.05873 1.99093,1.01752 2.63026,0.53396 z m 36.48708,-0.26758 c -0.0862,-0.22456 -0.21342,-0.35154 -0.28277,-0.28219 -0.0694,0.0694 -0.0476,0.25308 0.0483,0.40829 0.26089,0.42213 0.41338,0.34012 0.23447,-0.1261 z m -60.548592,-0.38852 c 0.436562,-0.11562 1.150937,-0.29675 1.5875,-0.40251 l 0.79375,-0.19229 -0.766265,-0.21772 c -0.569981,-0.16195 -1.130467,-0.0641 -2.188059,0.38186 -0.781987,0.32976 -1.336356,0.68501 -1.231931,0.78943 0.104425,0.10443 0.374677,0.11372 0.60056,0.0206 0.225882,-0.0931 0.767882,-0.26381 1.204445,-0.37942 z m -14.244563,-0.5923 c -0.0734,-0.1819 -0.133452,-0.0331 -0.133452,0.33073 0,0.3638 0.06005,0.51263 0.133452,0.33073 0.0734,-0.1819 0.0734,-0.47956 0,-0.66146 z m 21.917479,-0.46302 c 0.194438,-0.31461 -1.795767,-0.31461 -2.778125,0 -0.493036,0.1579 -0.244378,0.21855 0.976573,0.23821 0.900917,0.0145 1.711616,-0.0927 1.801552,-0.23821 z m 1.521354,-0.17523 c -0.1819,-0.0734 -0.47956,-0.0734 -0.66146,0 -0.1819,0.0734 -0.0331,0.13345 0.33073,0.13345 0.3638,0 0.51263,-0.06 0.33073,-0.13345 z m -0.76691,-0.53671 4.45862,-0.1441 -0.16364,-0.82875 c -0.14065,-0.71236 -0.69212,-2.28291 -1.49872,-4.26833 -1.30074,-3.201688 -2.67429,-6.945938 -2.83915,-7.739408 -0.19358,-0.93172 -0.28817,-0.72834 -1.693258,3.64086 -1.572203,4.888858 -2.156351,6.810778 -2.431853,8.001148 -0.09262,0.40018 -0.273412,0.7276 -0.401761,0.7276 -0.383372,0 0.643383,-4.15858 2.076439,-8.410038 0.738102,-2.18973 1.342004,-4.21678 1.342004,-4.50456 0,-0.49978 -0.151236,-0.5182 -3.373437,-0.41083 -1.855391,0.0618 -4.206875,0.22893 -5.225521,0.37134 -6.327516,0.88461 -7.354657,1.03826 -7.427541,1.11115 -0.04451,0.0445 -0.256494,0.91168 -0.471071,1.92704 -0.214577,1.01536 -0.458685,2.02471 -0.542463,2.242988 -0.21124,0.55037 0.04874,0.8268 1.479428,1.57305 0.682239,0.35585 1.169859,0.7612 1.083598,0.90077 -0.08626,0.13958 -0.03748,0.18001 0.108398,0.0899 0.145879,-0.0902 0.967947,0.34157 1.826818,0.95939 0.858871,0.61782 2.216427,1.52981 3.016792,2.02663 0.800364,0.49683 1.890917,1.2388 2.42345,1.64883 1.520192,1.17049 2.408732,1.56458 3.132799,1.38946 0.363803,-0.088 2.667835,-0.22483 5.120069,-0.30409 z m 9.258072,-1.9644 c 1.37488,-0.88913 2.58766,-1.49962 2.80976,-1.41439 0.21492,0.0825 0.30819,0.0674 0.20727,-0.0335 -0.19993,-0.19994 1.53562,-1.36911 3.47504,-2.341 1.44224,-0.72274 7.60272,-4.043218 9.2509,-4.986208 0.63208,-0.36164 1.04308,-0.72313 0.91333,-0.80332 -0.39333,-0.2431 -5.01309,-0.98736 -7.71947,-1.24364 -1.39985,-0.13256 -3.31908,-0.35959 -4.26497,-0.50451 -2.77347,-0.42494 -13.758332,-0.68864 -13.758332,-0.33028 0,0.16516 0.35418,1.04669 0.78708,1.95895 0.95742,2.01762 2.89964,7.045278 3.73607,9.671248 0.60313,1.89351 0.62722,1.92425 1.3791,1.75911 0.420884,-0.0924 1.853784,-0.87203 3.184222,-1.73242 z m -56.44689,-0.82395 c 0,-0.15486 -0.16812,-0.12914 -0.39687,0.0607 -0.21829,0.18115 -0.39688,0.37059 -0.39688,0.42096 0,0.0504 0.17859,0.0231 0.39688,-0.0607 0.21828,-0.0838 0.39687,-0.2732 0.39687,-0.42097 z m 6.73057,-3.62824 c 4.14615,-2.202078 9.4575,-4.058468 16.685055,-5.831678 0.662267,-0.16248 0.715078,-0.22825 0.318818,-0.39702 -0.267071,-0.11375 -1.294115,-0.003 -2.346645,0.25264 -2.333638,0.56719 -9.221818,2.73235 -9.598928,3.01722 -0.69772,0.52707 -3.86529,1.671978 -4.23417,1.530428 -0.50252,-0.19284 -1.2047,0.0494 -1.2047,0.41556 0,0.15297 0.17367,0.12454 0.40327,-0.066 0.2218,-0.18408 0.47176,-0.26619 0.55547,-0.18248 0.0837,0.0837 -0.43641,0.45049 -1.15583,0.81504 -0.71942,0.36456 -1.52596,0.99765 -1.79231,1.40686 -0.30058,0.4618 -0.34129,0.6323 -0.10733,0.44949 0.20732,-0.16198 1.3221,-0.7965 2.4773,-1.41005 z m 91.09361,0.35409 c -0.0879,-0.0879 -0.31613,-0.0973 -0.50712,-0.0209 -0.21107,0.0845 -0.14837,0.14715 0.15985,0.15985 0.27892,0.0115 0.43518,-0.0511 0.34727,-0.13897 z m 10.07034,-0.9054 c 0.76986,-0.16835 1.57353,-0.2394 1.78594,-0.15788 0.23051,0.0884 0.38621,-0.008 0.38621,-0.24038 0,-0.26234 0.28055,-0.38857 0.86363,-0.38857 1.32225,0 5.32148,-1.597178 6.01553,-2.402438 0.0728,-0.0844 0.51925,-0.32185 0.99219,-0.52761 0.47294,-0.20577 0.8599,-0.52365 0.8599,-0.70641 0,-0.18276 0.18637,-0.33229 0.41415,-0.33229 0.45246,0 2.95747,-2.41984 3.48845,-3.36984 0.1819,-0.32545 0.33073,-0.76201 0.33073,-0.97014 0,-0.20813 0.13755,-0.42427 0.30567,-0.48031 0.19451,-0.0648 0.35099,-1.12098 0.4303,-2.9043 0.0997,-2.24214 0.0386,-2.97486 -0.30567,-3.66497 -0.23666,-0.47442 -0.4303,-1.0824 -0.4303,-1.35109 0,-0.26868 -0.11906,-0.48851 -0.26458,-0.48851 -0.14552,0 -0.26459,-0.18177 -0.26459,-0.40393 0,-0.63525 -1.56054,-2.18836 -3.16493,-3.14985 -1.55697,-0.93309 -3.96736,-1.63585 -4.67689,-1.36358 -0.23503,0.0902 -0.60923,0.0131 -0.83155,-0.17131 -0.56157,-0.4658 -7.30645,-0.46859 -7.77183,-0.003 -0.18116,0.18116 -0.86266,0.32938 -1.51445,0.32938 -1.11982,0 -1.52438,0.0863 -3.93462,0.83905 -0.5457,0.17044 -1.17078,0.33301 -1.38906,0.36128 -0.56123,0.0727 -2.48735,0.93459 -2.64583,1.18398 -0.0728,0.11449 -0.4049,0.24994 -0.73809,0.30099 -0.33318,0.051 -0.59536,0.21188 -0.58262,0.35741 0.0306,0.34999 2.17886,0.19161 2.40695,-0.17746 0.0976,-0.15797 0.28995,-0.21772 0.42738,-0.13279 0.13742,0.0849 1.19253,-0.0908 2.34468,-0.39059 4.31469,-1.12258 7.69415,-1.79774 9.03522,-1.80511 1.63581,-0.009 5.09814,0.54722 5.09814,0.81899 0,0.10433 0.38696,0.27303 0.8599,0.37488 0.47294,0.10185 1.21708,0.36784 1.65365,0.5911 1.10459,0.56487 3.26031,2.82292 3.46193,3.62627 0.092,0.36662 0.25636,0.66658 0.36521,0.66658 0.34207,0 0.53404,3.49812 0.28668,5.22413 -0.13023,0.90874 -0.42451,1.83997 -0.65395,2.06942 -0.22944,0.22944 -0.41717,0.5095 -0.41717,0.62237 0,0.11286 -0.24828,0.4913 -0.55174,0.84099 -0.30346,0.34969 -0.80948,0.96214 -1.12448,1.361 -0.315,0.39886 -0.72156,0.72629 -0.90346,0.72761 -0.18191,0.001 -0.33073,0.0932 -0.33073,0.20424 0,0.26577 -0.43095,0.49647 -3.83646,2.05377 -1.22758,0.56136 -3.7924,1.35675 -5.02708,1.55898 -0.29105,0.0477 -1.30308,0.243068 -2.24896,0.434228 -1.09398,0.22108 -3.7898,0.35031 -7.40834,0.35513 -5.01164,0.007 -6.00337,-0.0649 -8.33437,-0.60147 -1.45521,-0.334978 -2.88509,-0.638678 -3.1775,-0.674898 -0.29242,-0.0362 -0.79061,-0.20442 -1.10709,-0.3738 -0.31648,-0.16937 -0.85113,-0.3075 -1.18812,-0.30696 -0.57444,9.3e-4 -0.56303,0.0313 0.18257,0.48598 1.95155,1.190138 4.27431,1.792018 9.39118,2.433478 2.33851,0.29316 11.70781,0.0969 13.43827,-0.28154 z M 66.936468,78.243565 c 0.338362,-0.65489 0.293341,-1.26097 -0.09335,-1.25675 -1.219163,0.0133 -2.039474,0.80156 -1.190625,1.14408 0.190287,0.0768 0.125564,0.14232 -0.152416,0.15434 -0.439406,0.019 -0.42743,0.0897 0.132292,0.78047 0.602204,0.74325 0.620288,0.74752 0.841082,0.19844 0.124105,-0.30863 0.332464,-0.7679 0.463021,-1.02058 z m -15.277438,-0.62075 -0.16034,-1.3643 3.00893,-0.14154 c 1.65491,-0.0779 3.45054,-0.27624 3.99028,-0.44086 l 0.98135,-0.2993 -0.15971,-1.71035 c -0.17835,-1.90986 0.007,-2.0916 1.10122,-1.07782 0.874,0.81 2.43987,1.04049 4.775562,0.70295 1.014876,-0.14666 1.934526,-0.26902 2.043667,-0.2719 0.491488,-0.013 0.123283,-0.44676 -0.616127,-0.72586 -0.448011,-0.16911 -0.875688,-0.5412 -0.950395,-0.82688 -0.09072,-0.3469 -0.457287,-0.57948 -1.103665,-0.70026 -1.17043,-0.2187 -1.629292,-0.56348 -1.629292,-1.22422 0,-0.36957 -0.19275,-0.49677 -0.75274,-0.49677 -0.83765,0 -1.37632,-0.5086 -1.87525,-1.77057 -0.2365,-0.59819 -0.56107,-0.89442 -1.11275,-1.01559 -0.97518,-0.21419 -1.2948,0.0512 -2.07951,1.72657 -0.41853,0.89358 -0.83062,1.3896 -1.23978,1.4923 -0.33709,0.0846 -0.61289,0.25206 -0.61289,0.37214 0,0.59476 -1.71389,2.89931 -2.15621,2.89931 -0.31034,0 -0.48962,0.19039 -0.48962,0.51996 0,0.28598 -0.33468,0.91106 -0.74374,1.38907 -0.41133,0.48065 -0.94348,1.60641 -1.19063,2.51875 -0.63527,2.34508 -0.61514,2.46893 0.34256,2.10745 0.76891,-0.29024 0.78526,-0.33344 0.62908,-1.66228 z m 91.83486,-1.65067 c 0.27513,-0.28844 0.5802,-0.23058 1.74373,0.33073 0.77564,0.37418 1.60229,0.68033 1.83699,0.68033 0.2347,0 0.53984,0.11131 0.67809,0.24737 0.37887,0.37286 4.31817,0.42185 4.6818,0.0582 0.16808,-0.16807 0.54967,-0.3067 0.84799,-0.30804 0.49094,-0.002 0.54666,-0.1792 0.58735,-1.86559 0.0563,-2.33487 0.32185,-2.72599 1.51277,-2.22839 1.76121,0.73588 6.5379,-0.29078 6.9175,-1.48679 0.0877,-0.27621 0.24752,-0.5022 0.35523,-0.5022 0.21428,0 1.02321,-1.74507 1.10383,-2.38125 0.0277,-0.21828 0.0362,-0.7243 0.0189,-1.12448 -0.0298,-0.69135 -0.0965,-0.7276 -1.33865,-0.7276 -0.71902,0 -1.38089,0.11906 -1.47082,0.26458 -0.0899,0.14552 -0.26943,0.26458 -0.39886,0.26458 -0.34791,0 -1.69288,-1.30375 -1.52163,-1.475 0.0808,-0.0808 -0.28753,-0.59421 -0.81842,-1.141 -1.5379,-1.58396 -4.98197,-2.42893 -7.11682,-1.74604 -0.52668,0.16847 -0.59532,0.36663 -0.59532,1.71876 0,1.11444 -0.10747,1.56958 -0.39687,1.68063 -0.24175,0.0928 -0.39688,4.2e-4 -0.39688,-0.23628 0,-0.21371 -0.23812,-0.38857 -0.52916,-0.38857 -0.29104,0 -0.52917,-0.10837 -0.52917,-0.24083 0,-0.3508 -4.32178,-0.65572 -5.19035,-0.3662 -0.69414,0.23138 -0.7326,0.32505 -0.66404,1.61694 0.0815,1.53487 -0.0647,1.62625 -1.34911,0.84317 -0.85498,-0.52128 -2.14606,-0.6824 -2.96132,-0.36956 -0.41285,0.15842 -0.57993,1.17729 -0.24756,1.50966 0.32198,0.32198 0.28932,1.67291 -0.0517,2.13931 -0.31868,0.43583 -0.39428,0.41853 -1.16267,-0.26611 -0.9484,-0.84504 -2.41708,-1.41708 -3.65292,-1.42281 -0.95402,-0.004 -1.04584,0.1782 -0.47143,0.93763 0.46117,0.60973 0.53211,2.38836 0.10576,2.65186 -0.17083,0.10557 -0.65397,-0.22006 -1.12448,-0.75789 -0.89714,-1.02553 -2.39587,-1.89099 -2.92382,-1.6884 -0.18223,0.0699 -0.53425,0.55479 -0.78228,1.07748 -0.24804,0.52268 -0.55474,0.95034 -0.68156,0.95034 -0.12682,0 -0.4784,-0.38696 -0.78129,-0.8599 -1.45762,-2.27603 -1.88881,-2.39971 -3.43592,-0.98551 l -1.16003,1.06037 1.89599,1.84773 c 1.04279,1.01625 2.02387,1.84772 2.18017,1.84772 0.1563,0 0.60022,0.22128 0.98649,0.49173 0.58973,0.41291 3.48977,1.62494 3.88801,1.62494 0.0677,0 0.32846,-0.4739 0.57939,-1.05311 0.65613,-1.5145 0.99812,-1.54581 2.98177,-0.27301 1.26373,0.81087 3.29938,1.49342 5.82032,1.95157 l 1.71927,0.31245 0.48912,-0.93197 c 0.26902,-0.51258 0.63919,-1.08929 0.82259,-1.28157 z m -84.78671,1.43624 c 0,-0.0572 -0.18478,-0.17489 -0.41062,-0.26155 -0.23546,-0.0904 -0.34166,-0.046 -0.24897,0.10398 0.15538,0.25141 0.65959,0.37186 0.65959,0.15757 z m 100.92329,-0.40051 c 0.0815,-0.13195 -0.09,-0.17759 -0.38126,-0.10143 -0.6178,0.16156 -0.69589,0.34134 -0.14827,0.34134 0.20969,0 0.44798,-0.10796 0.52953,-0.23991 z m 2.44495,-2.19095 c -0.0845,-0.21107 -0.14716,-0.14837 -0.15985,0.15985 -0.0115,0.27892 0.051,0.43519 0.13896,0.34727 0.0879,-0.0879 0.0973,-0.31612 0.0209,-0.50712 z m -42.85032,0.15434 c -0.0879,-0.0879 -0.31612,-0.0973 -0.50712,-0.0209 -0.21106,0.0845 -0.14837,0.14716 0.15986,0.15986 0.27891,0.0115 0.43518,-0.0511 0.34726,-0.13897 z m 1.39458,-4.71932 c 0,-0.0642 -0.11906,-0.19026 -0.26459,-0.2802 -0.14552,-0.0899 -0.26458,-0.0374 -0.26458,0.11668 0,0.1541 0.11906,0.28019 0.26458,0.28019 0.14553,0 0.26459,-0.0525 0.26459,-0.11667 z m 1.29472,-1.27149 c 0.23379,-0.18239 0.52028,-0.48046 0.63665,-0.66236 0.11638,-0.1819 0.3545,-0.33651 0.52917,-0.34357 0.17467,-0.007 0.85336,-0.67218 1.50821,-1.47804 1.34075,-1.64993 2.21987,-2.20925 3.49259,-2.22209 l 0.87303,-0.009 -0.65867,-0.54794 c -0.52013,-0.43268 -0.91765,-0.52305 -1.88982,-0.42964 -1.2891,0.12387 -2.09485,0.79849 -3.61963,3.03057 -0.89637,1.31217 -2.60667,2.46253 -3.66116,2.46253 -0.48749,0 -0.88634,0.11907 -0.88634,0.26459 0,0.14552 0.24515,0.26458 0.54478,0.26458 0.29963,0 0.48102,0.10317 0.40309,0.22926 -0.20587,0.33311 2.22237,-0.16453 2.7281,-0.55909 z m 48.01873,0.44838 c 0.0904,-0.23546 0.046,-0.34166 -0.10398,-0.24897 -0.14386,0.0889 -0.26156,0.27369 -0.26156,0.41062 0,0.38058 0.18965,0.29672 0.36554,-0.16165 z m -94.259789,-0.98286 c -0.261307,-0.25936 -0.291698,-0.22897 -0.148112,0.14812 0.09936,0.26093 0.247304,0.40778 0.328765,0.32632 0.08146,-0.0815 1.68e-4,-0.29496 -0.180653,-0.47444 z m 42.829669,-0.45861 c 0,-0.14552 -0.26789,-0.25621 -0.59531,-0.24598 -0.56804,0.0177 -0.57107,0.029 -0.0662,0.24598 0.29104,0.12507 0.55893,0.23576 0.59532,0.24599 0.0364,0.0102 0.0661,-0.10047 0.0661,-0.24599 z m 22.88646,-1.32291 c -0.0899,-0.14552 -0.30532,-0.26276 -0.47864,-0.26053 -0.18934,0.002 -0.1567,0.10642 0.0818,0.26053 0.5083,0.32848 0.59989,0.32848 0.39688,0 z m -5.56978,-0.81565 c -0.0674,-0.10905 0.005,-0.53322 0.16044,-0.94259 0.19946,-0.52464 0.20002,-0.77195 0.002,-0.838 -0.1546,-0.0515 -0.28109,-0.43492 -0.28109,-0.85198 0,-0.51416 -0.27685,-1.01721 -0.8599,-1.56249 -0.47294,-0.44231 -0.89366,-0.70423 -0.93494,-0.58203 -0.0413,0.12219 0.23532,0.84009 0.61466,1.59532 0.3824,0.76134 0.66913,1.75149 0.64355,2.22227 -0.0615,1.13081 -0.0523,1.15779 0.3927,1.15779 0.21188,0 0.33009,-0.0892 0.26269,-0.19829 z m -1.52552,-0.82146 c -0.0845,-0.21107 -0.14716,-0.14837 -0.15985,0.15985 -0.0115,0.27892 0.051,0.43518 0.13896,0.34727 0.0879,-0.0879 0.0973,-0.31613 0.0209,-0.50712 z m -4.95166,-3.32383 c -0.0127,-0.30075 -0.68949,-1.13212 -0.81742,-1.00419 -0.0616,0.0616 -0.40071,-0.3092 -0.7535,-0.82407 -0.53515,-0.781 -0.6594,-1.33734 -0.74976,-3.35732 -0.0596,-1.33165 -0.21474,-2.5343 -0.34482,-2.67255 -0.13007,-0.13824 -0.2365,-0.54363 -0.2365,-0.90086 0,-0.74339 -1.86814,-2.68181 -2.59083,-2.68829 -0.37729,-0.003 -0.38845,-0.0442 -0.0676,-0.24713 0.21134,-0.13369 0.49762,-0.173 0.6362,-0.0874 0.13857,0.0857 0.1668,0.0179 0.0627,-0.15046 -0.13236,-0.21416 -0.33821,-0.22645 -0.68495,-0.0409 -0.27264,0.14591 -0.77143,0.27268 -1.10842,0.28171 -0.49732,0.0133 -0.40596,0.12036 0.48509,0.56837 1.69868,0.85407 2.15645,1.92579 2.43826,5.70835 0.2678,3.59467 0.75623,4.71209 2.18449,4.99775 0.42502,0.085 0.83684,0.25823 0.91516,0.38496 0.17433,0.28206 0.64353,0.3058 0.63192,0.032 z m 3.74542,-1.45962 c -0.26131,-0.25936 -0.2917,-0.22897 -0.14812,0.14811 0.0994,0.26094 0.24731,0.40779 0.32877,0.32632 0.0815,-0.0815 1.7e-4,-0.29495 -0.18065,-0.47443 z m -0.42369,-1.80049 c 0.1079,-0.33997 0.014,-0.72492 -0.24733,-1.01366 -0.23172,-0.25604 -0.35208,-0.53475 -0.26747,-0.61936 0.0846,-0.0846 -0.28176,-0.0556 -0.81414,0.0645 -0.53238,0.12008 -1.01913,0.26948 -1.08167,0.33202 -0.1947,0.1947 1.46227,1.78465 1.85989,1.78465 0.20721,0 0.45503,-0.24666 0.55072,-0.54813 z m 6.81296,-0.67161 c 0.51911,-0.44229 0.64645,-0.64468 0.32477,-0.51615 -0.29104,0.11628 -0.678,0.21708 -0.8599,0.224 -0.1819,0.007 -0.33073,0.10641 -0.33073,0.22108 0,0.40011 -1.82404,0.54735 -2.79811,0.22588 -0.53929,-0.17798 -1.52932,-0.89439 -2.20006,-1.59203 -0.67074,-0.69763 -1.39813,-1.29229 -1.61641,-1.32146 -0.99753,-0.13329 -1.80911,0.0452 -1.95693,0.43042 -0.21891,0.5705 0.0675,0.99561 0.45913,0.68142 0.52837,-0.42392 1.97363,-0.0198 2.81922,0.78829 1.50681,1.43998 2.38328,1.82062 3.91007,1.69809 1.03342,-0.0829 1.61637,-0.30056 2.24895,-0.83954 z m -4.61899,-2.07863 c -0.0458,-0.0382 -0.33137,-0.19829 -0.63454,-0.35567 -0.4108,-0.21324 -0.55121,-0.20552 -0.5512,0.0303 1e-5,0.17404 0.28555,0.33409 0.63454,0.35566 0.34899,0.0216 0.59703,0.008 0.5512,-0.0303 z m -10.88279,-1.51374 c -0.0845,-0.21107 -0.14716,-0.14837 -0.15985,0.15985 -0.0115,0.27892 0.051,0.43519 0.13896,0.34727 0.0879,-0.0879 0.0973,-0.31612 0.0209,-0.50712 z m -15.0982,-2.20565 c -0.23561,-0.2356 -0.42838,-0.32462 -0.42838,-0.1978 0,0.29964 0.59165,0.89128 0.74147,0.74146 0.0634,-0.0634 -0.0775,-0.30805 -0.31309,-0.54366 z m -44.697636,-3.3506 c -0.08446,-0.21107 -0.147157,-0.14837 -0.159853,0.15985 -0.01149,0.27892 0.05105,0.43519 0.138965,0.34727 0.08792,-0.0879 0.09732,-0.31612 0.02089,-0.50712 z m 2.116666,-1.852082 c -0.08446,-0.211067 -0.147156,-0.148372 -0.159852,0.159852 -0.01149,0.278915 0.05104,0.435185 0.138964,0.347266 0.08792,-0.08792 0.09732,-0.316122 0.02089,-0.507118 z m 34.74426,-0.570842 c 0,-0.05021 -0.26789,-0.318097 -0.59531,-0.595312 l -0.595308,-0.504028 0.504018,0.595312 c 0.47367,0.559447 0.6866,0.715762 0.6866,0.504028 z m -7.012932,-6.260337 c -0.26419,-0.291934 -0.54184,-0.469298 -0.617,-0.394142 -0.0752,0.07516 0.0928,0.310225 0.3732,0.522375 0.71546,0.541275 0.80641,0.493438 0.2438,-0.128233 z m -1.30254,-1.846682 c 0,-0.310726 -0.0971,-0.428248 -0.23775,-0.287637 -0.13077,0.130763 -0.15776,0.367187 -0.06,0.525387 0.24878,0.402534 0.29774,0.363444 0.29774,-0.23775 z M 65.990219,19.090551 c -0.08146,-0.08146 -0.294956,-1.68e-4 -0.474431,0.180654 -0.259363,0.261306 -0.228972,0.291697 0.148112,0.148112 0.260937,-0.09936 0.407781,-0.247304 0.326319,-0.328766 z M 92.838428,182.81654 c 0,-0.3315 0.28078,-0.3315 0.79375,0 0.32093,0.2074 0.28295,0.25725 -0.19844,0.26053 -0.32742,0.002 -0.59531,-0.11501 -0.59531,-0.26053 z m 2.91041,0 c 0,-0.14552 0.30469,-0.26458 0.67708,-0.26458 0.38401,0 0.60629,0.11452 0.51355,0.26458 -0.0899,0.14552 -0.39462,0.26458 -0.67707,0.26458 -0.28246,0 -0.51356,-0.11906 -0.51356,-0.26458 z"
       id="path1" /></g></svg>
